<svg width="375" height="703" viewBox="0 0 375 703" fill="none" xmlns="http://www.w3.org/2000/svg">
<rect width="375" height="703" fill="#5126EA"/>
<path d="M94.0144 165L85.0864 142.6H90.1744L94.8464 154.728C95.1024 155.389 95.3157 155.976 95.4864 156.488C95.6784 156.979 95.8384 157.448 95.9664 157.896C96.1157 158.323 96.2544 158.749 96.3824 159.176C96.5104 159.581 96.6384 160.029 96.7664 160.52L95.8384 160.552C96.009 159.891 96.1797 159.283 96.3504 158.728C96.521 158.152 96.713 157.555 96.9264 156.936C97.1397 156.317 97.4064 155.581 97.7264 154.728L102.142 142.6H107.198L98.2064 165H94.0144ZM115.945 165.32C114.11 165.32 112.51 164.947 111.145 164.2C109.779 163.453 108.713 162.429 107.945 161.128C107.177 159.827 106.793 158.333 106.793 156.648C106.793 155.347 107.006 154.152 107.433 153.064C107.859 151.976 108.457 151.037 109.225 150.248C109.993 149.437 110.899 148.819 111.945 148.392C113.011 147.944 114.163 147.72 115.401 147.72C116.553 147.72 117.619 147.933 118.601 148.36C119.582 148.765 120.425 149.352 121.129 150.12C121.854 150.867 122.409 151.752 122.793 152.776C123.177 153.8 123.347 154.92 123.305 156.136L123.273 157.544H109.673L108.937 154.76H119.529L119.017 155.336V154.632C118.974 154.056 118.782 153.533 118.441 153.064C118.121 152.595 117.705 152.232 117.193 151.976C116.681 151.72 116.105 151.592 115.465 151.592C114.526 151.592 113.726 151.773 113.065 152.136C112.425 152.499 111.934 153.032 111.593 153.736C111.251 154.44 111.081 155.293 111.081 156.296C111.081 157.32 111.294 158.205 111.721 158.952C112.169 159.699 112.787 160.285 113.577 160.712C114.387 161.117 115.337 161.32 116.425 161.32C117.171 161.32 117.854 161.203 118.473 160.968C119.091 160.733 119.753 160.328 120.457 159.752L122.633 162.792C122.014 163.347 121.331 163.816 120.585 164.2C119.838 164.563 119.07 164.84 118.281 165.032C117.491 165.224 116.713 165.32 115.945 165.32ZM126.695 165V141.32H131.239V165H126.695ZM143.41 165.32C141.682 165.32 140.135 164.947 138.77 164.2C137.426 163.432 136.359 162.387 135.57 161.064C134.802 159.741 134.418 158.227 134.418 156.52C134.418 154.813 134.802 153.309 135.57 152.008C136.359 150.685 137.426 149.64 138.77 148.872C140.135 148.104 141.682 147.72 143.41 147.72C145.116 147.72 146.642 148.104 147.986 148.872C149.351 149.64 150.418 150.685 151.186 152.008C151.954 153.309 152.338 154.813 152.338 156.52C152.338 158.227 151.954 159.741 151.186 161.064C150.418 162.387 149.351 163.432 147.986 164.2C146.642 164.947 145.116 165.32 143.41 165.32ZM143.41 161.352C144.242 161.352 144.988 161.149 145.65 160.744C146.311 160.317 146.823 159.741 147.186 159.016C147.57 158.269 147.762 157.437 147.762 156.52C147.762 155.581 147.57 154.749 147.186 154.024C146.823 153.277 146.311 152.701 145.65 152.296C144.988 151.869 144.242 151.656 143.41 151.656C142.556 151.656 141.799 151.869 141.138 152.296C140.476 152.723 139.954 153.299 139.57 154.024C139.186 154.749 139.004 155.581 139.026 156.52C139.004 157.437 139.186 158.269 139.57 159.016C139.954 159.741 140.476 160.317 141.138 160.744C141.799 161.149 142.556 161.352 143.41 161.352ZM163.116 165.32C161.495 165.32 160.044 164.936 158.764 164.168C157.484 163.4 156.471 162.355 155.724 161.032C154.999 159.709 154.636 158.205 154.636 156.52C154.636 154.856 154.999 153.363 155.724 152.04C156.471 150.696 157.484 149.64 158.764 148.872C160.044 148.104 161.495 147.72 163.116 147.72C164.631 147.72 166.018 147.997 167.276 148.552C168.535 149.107 169.516 149.875 170.22 150.856L167.724 153.864C167.426 153.459 167.052 153.096 166.604 152.776C166.156 152.435 165.666 152.168 165.132 151.976C164.62 151.784 164.087 151.688 163.532 151.688C162.658 151.688 161.879 151.901 161.196 152.328C160.535 152.733 160.012 153.299 159.628 154.024C159.244 154.749 159.052 155.581 159.052 156.52C159.052 157.437 159.244 158.259 159.628 158.984C160.034 159.688 160.578 160.264 161.26 160.712C161.943 161.139 162.711 161.352 163.564 161.352C164.119 161.352 164.642 161.277 165.132 161.128C165.623 160.957 166.082 160.712 166.508 160.392C166.956 160.072 167.362 159.688 167.724 159.24L170.188 162.248C169.463 163.165 168.46 163.912 167.18 164.488C165.9 165.043 164.546 165.32 163.116 165.32ZM173.484 165V148.072H178.028V165H173.484ZM175.724 144.584C174.849 144.584 174.167 144.371 173.676 143.944C173.185 143.517 172.94 142.909 172.94 142.12C172.94 141.395 173.185 140.808 173.676 140.36C174.188 139.891 174.871 139.656 175.724 139.656C176.599 139.656 177.281 139.88 177.772 140.328C178.263 140.755 178.508 141.352 178.508 142.12C178.508 142.867 178.252 143.464 177.74 143.912C177.249 144.36 176.577 144.584 175.724 144.584ZM189.505 165.32C188.033 165.32 186.711 164.947 185.537 164.2C184.364 163.432 183.436 162.397 182.753 161.096C182.092 159.773 181.761 158.248 181.761 156.52C181.761 154.835 182.092 153.331 182.753 152.008C183.436 150.685 184.353 149.64 185.505 148.872C186.679 148.104 188.012 147.72 189.505 147.72C190.295 147.72 191.052 147.848 191.777 148.104C192.524 148.339 193.185 148.669 193.761 149.096C194.359 149.523 194.839 150.003 195.201 150.536C195.564 151.048 195.767 151.592 195.809 152.168L194.657 152.36V141.32H199.201V165H194.913L194.721 161.096L195.617 161.192C195.575 161.725 195.383 162.237 195.041 162.728C194.7 163.219 194.241 163.667 193.665 164.072C193.111 164.456 192.471 164.765 191.745 165C191.041 165.213 190.295 165.32 189.505 165.32ZM190.529 161.544C191.383 161.544 192.129 161.331 192.769 160.904C193.409 160.477 193.911 159.891 194.273 159.144C194.636 158.397 194.817 157.523 194.817 156.52C194.817 155.539 194.636 154.675 194.273 153.928C193.911 153.16 193.409 152.573 192.769 152.168C192.129 151.741 191.383 151.528 190.529 151.528C189.676 151.528 188.929 151.741 188.289 152.168C187.671 152.573 187.18 153.16 186.817 153.928C186.476 154.675 186.305 155.539 186.305 156.52C186.305 157.523 186.476 158.397 186.817 159.144C187.18 159.891 187.671 160.477 188.289 160.904C188.929 161.331 189.676 161.544 190.529 161.544ZM209.967 165.32C208.559 165.32 207.29 164.936 206.159 164.168C205.029 163.4 204.133 162.355 203.471 161.032C202.81 159.709 202.479 158.195 202.479 156.488C202.479 154.781 202.81 153.277 203.471 151.976C204.154 150.653 205.071 149.619 206.223 148.872C207.375 148.104 208.687 147.72 210.159 147.72C210.991 147.72 211.749 147.848 212.431 148.104C213.135 148.339 213.743 148.669 214.255 149.096C214.789 149.523 215.237 150.013 215.599 150.568C215.962 151.123 216.218 151.72 216.367 152.36L215.407 152.2V148.072H219.919V165H215.343V160.936L216.367 160.84C216.197 161.437 215.919 162.003 215.535 162.536C215.151 163.069 214.671 163.549 214.095 163.976C213.541 164.381 212.911 164.712 212.207 164.968C211.503 165.203 210.757 165.32 209.967 165.32ZM211.215 161.384C212.069 161.384 212.815 161.181 213.455 160.776C214.095 160.371 214.586 159.805 214.927 159.08C215.29 158.333 215.471 157.469 215.471 156.488C215.471 155.528 215.29 154.685 214.927 153.96C214.586 153.235 214.095 152.669 213.455 152.264C212.815 151.837 212.069 151.624 211.215 151.624C210.383 151.624 209.647 151.837 209.007 152.264C208.389 152.669 207.898 153.235 207.535 153.96C207.173 154.685 206.991 155.528 206.991 156.488C206.991 157.469 207.173 158.333 207.535 159.08C207.898 159.805 208.389 160.371 209.007 160.776C209.647 161.181 210.383 161.384 211.215 161.384ZM231.099 165.32C229.627 165.32 228.304 164.947 227.131 164.2C225.958 163.432 225.03 162.397 224.347 161.096C223.686 159.773 223.355 158.248 223.355 156.52C223.355 154.835 223.686 153.331 224.347 152.008C225.03 150.685 225.947 149.64 227.099 148.872C228.272 148.104 229.606 147.72 231.099 147.72C231.888 147.72 232.646 147.848 233.371 148.104C234.118 148.339 234.779 148.669 235.355 149.096C235.952 149.523 236.432 150.003 236.795 150.536C237.158 151.048 237.36 151.592 237.403 152.168L236.251 152.36V141.32H240.795V165H236.507L236.315 161.096L237.211 161.192C237.168 161.725 236.976 162.237 236.635 162.728C236.294 163.219 235.835 163.667 235.259 164.072C234.704 164.456 234.064 164.765 233.339 165C232.635 165.213 231.888 165.32 231.099 165.32ZM232.123 161.544C232.976 161.544 233.723 161.331 234.363 160.904C235.003 160.477 235.504 159.891 235.867 159.144C236.23 158.397 236.411 157.523 236.411 156.52C236.411 155.539 236.23 154.675 235.867 153.928C235.504 153.16 235.003 152.573 234.363 152.168C233.723 151.741 232.976 151.528 232.123 151.528C231.27 151.528 230.523 151.741 229.883 152.168C229.264 152.573 228.774 153.16 228.411 153.928C228.07 154.675 227.899 155.539 227.899 156.52C227.899 157.523 228.07 158.397 228.411 159.144C228.774 159.891 229.264 160.477 229.883 160.904C230.523 161.331 231.27 161.544 232.123 161.544ZM253.257 165.32C251.422 165.32 249.822 164.947 248.457 164.2C247.092 163.453 246.025 162.429 245.257 161.128C244.489 159.827 244.105 158.333 244.105 156.648C244.105 155.347 244.318 154.152 244.745 153.064C245.172 151.976 245.769 151.037 246.537 150.248C247.305 149.437 248.212 148.819 249.257 148.392C250.324 147.944 251.476 147.72 252.713 147.72C253.865 147.72 254.932 147.933 255.913 148.36C256.894 148.765 257.737 149.352 258.441 150.12C259.166 150.867 259.721 151.752 260.105 152.776C260.489 153.8 260.66 154.92 260.617 156.136L260.585 157.544H246.985L246.249 154.76H256.841L256.329 155.336V154.632C256.286 154.056 256.094 153.533 255.753 153.064C255.433 152.595 255.017 152.232 254.505 151.976C253.993 151.72 253.417 151.592 252.777 151.592C251.838 151.592 251.038 151.773 250.377 152.136C249.737 152.499 249.246 153.032 248.905 153.736C248.564 154.44 248.393 155.293 248.393 156.296C248.393 157.32 248.606 158.205 249.033 158.952C249.481 159.699 250.1 160.285 250.889 160.712C251.7 161.117 252.649 161.32 253.737 161.32C254.484 161.32 255.166 161.203 255.785 160.968C256.404 160.733 257.065 160.328 257.769 159.752L259.945 162.792C259.326 163.347 258.644 163.816 257.897 164.2C257.15 164.563 256.382 164.84 255.593 165.032C254.804 165.224 254.025 165.32 253.257 165.32ZM281.82 165.32C279.985 165.32 278.385 164.947 277.02 164.2C275.654 163.453 274.588 162.429 273.82 161.128C273.052 159.827 272.668 158.333 272.668 156.648C272.668 155.347 272.881 154.152 273.308 153.064C273.734 151.976 274.332 151.037 275.1 150.248C275.868 149.437 276.774 148.819 277.82 148.392C278.886 147.944 280.038 147.72 281.276 147.72C282.428 147.72 283.494 147.933 284.476 148.36C285.457 148.765 286.3 149.352 287.004 150.12C287.729 150.867 288.284 151.752 288.668 152.776C289.052 153.8 289.222 154.92 289.18 156.136L289.148 157.544H275.548L274.812 154.76H285.404L284.892 155.336V154.632C284.849 154.056 284.657 153.533 284.316 153.064C283.996 152.595 283.58 152.232 283.068 151.976C282.556 151.72 281.98 151.592 281.34 151.592C280.401 151.592 279.601 151.773 278.94 152.136C278.3 152.499 277.809 153.032 277.468 153.736C277.126 154.44 276.956 155.293 276.956 156.296C276.956 157.32 277.169 158.205 277.596 158.952C278.044 159.699 278.662 160.285 279.452 160.712C280.262 161.117 281.212 161.32 282.3 161.32C283.046 161.32 283.729 161.203 284.348 160.968C284.966 160.733 285.628 160.328 286.332 159.752L288.508 162.792C287.889 163.347 287.206 163.816 286.46 164.2C285.713 164.563 284.945 164.84 284.156 165.032C283.366 165.224 282.588 165.32 281.82 165.32ZM241.773 205.32C239.938 205.32 238.338 204.947 236.973 204.2C235.607 203.453 234.541 202.429 233.773 201.128C233.005 199.827 232.621 198.333 232.621 196.648C232.621 195.347 232.834 194.152 233.261 193.064C233.687 191.976 234.285 191.037 235.053 190.248C235.821 189.437 236.727 188.819 237.773 188.392C238.839 187.944 239.991 187.72 241.229 187.72C242.381 187.72 243.447 187.933 244.429 188.36C245.41 188.765 246.253 189.352 246.957 190.12C247.682 190.867 248.237 191.752 248.621 192.776C249.005 193.8 249.175 194.92 249.133 196.136L249.101 197.544H235.501L234.765 194.76H245.357L244.845 195.336V194.632C244.802 194.056 244.61 193.533 244.269 193.064C243.949 192.595 243.533 192.232 243.021 191.976C242.509 191.72 241.933 191.592 241.293 191.592C240.354 191.592 239.554 191.773 238.893 192.136C238.253 192.499 237.762 193.032 237.421 193.736C237.079 194.44 236.909 195.293 236.909 196.296C236.909 197.32 237.122 198.205 237.549 198.952C237.997 199.699 238.615 200.285 239.405 200.712C240.215 201.117 241.165 201.32 242.253 201.32C242.999 201.32 243.682 201.203 244.301 200.968C244.919 200.733 245.581 200.328 246.285 199.752L248.461 202.792C247.842 203.347 247.159 203.816 246.413 204.2C245.666 204.563 244.898 204.84 244.109 205.032C243.319 205.224 242.541 205.32 241.773 205.32ZM252.459 205V188.072H256.843L256.939 191.304L256.267 191.432C256.501 190.877 256.811 190.376 257.195 189.928C257.579 189.48 258.027 189.096 258.539 188.776C259.072 188.456 259.627 188.211 260.203 188.04C260.779 187.848 261.355 187.752 261.931 187.752C262.805 187.752 263.595 187.891 264.299 188.168C265.003 188.445 265.6 188.883 266.091 189.48C266.581 190.056 266.965 190.824 267.243 191.784L266.539 191.72L266.763 191.208C267.04 190.696 267.392 190.237 267.819 189.832C268.245 189.405 268.725 189.043 269.259 188.744C269.792 188.424 270.347 188.179 270.923 188.008C271.499 187.837 272.064 187.752 272.619 187.752C273.941 187.752 275.04 188.019 275.915 188.552C276.789 189.064 277.44 189.843 277.867 190.888C278.315 191.933 278.539 193.213 278.539 194.728V205H273.995V195.048C273.995 194.28 273.888 193.651 273.675 193.16C273.461 192.669 273.152 192.307 272.747 192.072C272.341 191.816 271.819 191.688 271.179 191.688C270.688 191.688 270.229 191.773 269.803 191.944C269.397 192.093 269.035 192.317 268.715 192.616C268.416 192.893 268.181 193.224 268.011 193.608C267.84 193.992 267.755 194.419 267.755 194.888V205H263.211V195.016C263.211 194.312 263.093 193.715 262.859 193.224C262.645 192.712 262.336 192.328 261.931 192.072C261.525 191.816 261.024 191.688 260.427 191.688C259.936 191.688 259.477 191.773 259.051 191.944C258.645 192.093 258.293 192.317 257.995 192.616C257.696 192.893 257.451 193.224 257.259 193.608C257.088 193.992 257.003 194.408 257.003 194.856V205H252.459ZM298.502 205.32C297.265 205.32 296.198 205.053 295.302 204.52C294.428 203.965 293.745 203.187 293.254 202.184C292.785 201.16 292.55 199.933 292.55 198.504V188.072H297.094V197.768C297.094 198.536 297.222 199.208 297.478 199.784C297.734 200.339 298.097 200.765 298.566 201.064C299.036 201.363 299.612 201.512 300.294 201.512C300.785 201.512 301.244 201.437 301.67 201.288C302.097 201.117 302.46 200.883 302.758 200.584C303.057 200.285 303.292 199.933 303.462 199.528C303.633 199.123 303.718 198.685 303.718 198.216V188.072H308.262V205H303.942L303.782 201.512L304.614 201.128C304.358 201.917 303.932 202.632 303.334 203.272C302.737 203.912 302.022 204.413 301.19 204.776C300.358 205.139 299.462 205.32 298.502 205.32ZM312.803 205V188.072H317.187L317.283 191.304L316.611 191.432C316.845 190.877 317.155 190.376 317.539 189.928C317.923 189.48 318.371 189.096 318.883 188.776C319.416 188.456 319.971 188.211 320.547 188.04C321.123 187.848 321.699 187.752 322.275 187.752C323.149 187.752 323.939 187.891 324.643 188.168C325.347 188.445 325.944 188.883 326.435 189.48C326.925 190.056 327.309 190.824 327.587 191.784L326.883 191.72L327.107 191.208C327.384 190.696 327.736 190.237 328.163 189.832C328.589 189.405 329.069 189.043 329.603 188.744C330.136 188.424 330.691 188.179 331.267 188.008C331.843 187.837 332.408 187.752 332.963 187.752C334.285 187.752 335.384 188.019 336.259 188.552C337.133 189.064 337.784 189.843 338.211 190.888C338.659 191.933 338.883 193.213 338.883 194.728V205H334.339V195.048C334.339 194.28 334.232 193.651 334.019 193.16C333.805 192.669 333.496 192.307 333.091 192.072C332.685 191.816 332.163 191.688 331.523 191.688C331.032 191.688 330.573 191.773 330.147 191.944C329.741 192.093 329.379 192.317 329.059 192.616C328.76 192.893 328.525 193.224 328.355 193.608C328.184 193.992 328.099 194.419 328.099 194.888V205H323.555V195.016C323.555 194.312 323.437 193.715 323.203 193.224C322.989 192.712 322.68 192.328 322.275 192.072C321.869 191.816 321.368 191.688 320.771 191.688C320.28 191.688 319.821 191.773 319.395 191.944C318.989 192.093 318.637 192.317 318.339 192.616C318.04 192.893 317.795 193.224 317.603 193.608C317.432 193.992 317.347 194.408 317.347 194.856V205H312.803ZM20.6946 245V221.32H25.2386V245H20.6946ZM35.5179 245.32C34.2805 245.32 33.2139 245.053 32.3179 244.52C31.4432 243.965 30.7605 243.187 30.2699 242.184C29.8005 241.16 29.5659 239.933 29.5659 238.504V228.072H34.1099V237.768C34.1099 238.536 34.2379 239.208 34.4939 239.784C34.7499 240.339 35.1125 240.765 35.5819 241.064C36.0512 241.363 36.6272 241.512 37.3099 241.512C37.8005 241.512 38.2592 241.437 38.6859 241.288C39.1125 241.117 39.4752 240.883 39.7739 240.584C40.0725 240.285 40.3072 239.933 40.4779 239.528C40.6485 239.123 40.7339 238.685 40.7339 238.216V228.072H45.2779V245H40.9579L40.7979 241.512L41.6299 241.128C41.3739 241.917 40.9472 242.632 40.3499 243.272C39.7525 243.912 39.0379 244.413 38.2059 244.776C37.3739 245.139 36.4779 245.32 35.5179 245.32ZM57.2496 252.36C55.9056 252.36 54.583 252.157 53.2816 251.752C51.9803 251.368 50.9243 250.867 50.1136 250.248L51.7136 246.984C52.1403 247.283 52.631 247.549 53.1856 247.784C53.7403 248.019 54.3163 248.2 54.9136 248.328C55.5323 248.456 56.1616 248.52 56.8016 248.52C57.911 248.52 58.8176 248.349 59.5216 248.008C60.247 247.667 60.791 247.155 61.1536 246.472C61.5163 245.811 61.6976 244.957 61.6976 243.912V240.968L62.4656 241.128C62.3376 241.832 61.9856 242.483 61.4096 243.08C60.8336 243.656 60.1083 244.125 59.2336 244.488C58.359 244.829 57.463 245 56.5456 245C54.967 245 53.5696 244.637 52.3536 243.912C51.1376 243.187 50.1776 242.184 49.4736 240.904C48.7696 239.624 48.4176 238.152 48.4176 236.488C48.4176 234.781 48.759 233.277 49.4416 231.976C50.1456 230.653 51.095 229.619 52.2896 228.872C53.5056 228.104 54.8816 227.72 56.4176 227.72C57.0576 227.72 57.6656 227.795 58.2416 227.944C58.839 228.093 59.383 228.307 59.8736 228.584C60.3856 228.84 60.8336 229.139 61.2176 229.48C61.623 229.8 61.9536 230.152 62.2096 230.536C62.4656 230.92 62.6256 231.304 62.6896 231.688L61.7616 231.944L61.8896 228.072H66.2416V243.72C66.2416 245.107 66.039 246.333 65.6336 247.4C65.2283 248.467 64.631 249.363 63.8416 250.088C63.0736 250.835 62.1243 251.4 60.9936 251.784C59.8843 252.168 58.6363 252.36 57.2496 252.36ZM57.3776 241.352C58.2736 241.352 59.0523 241.149 59.7136 240.744C60.3963 240.339 60.919 239.773 61.2816 239.048C61.6443 238.323 61.8256 237.469 61.8256 236.488C61.8256 235.528 61.6443 234.685 61.2816 233.96C60.919 233.213 60.3963 232.637 59.7136 232.232C59.0523 231.827 58.2736 231.624 57.3776 231.624C56.503 231.624 55.7243 231.837 55.0416 232.264C54.3803 232.669 53.8683 233.235 53.5056 233.96C53.143 234.685 52.9616 235.528 52.9616 236.488C52.9616 237.448 53.143 238.301 53.5056 239.048C53.8683 239.773 54.3803 240.339 55.0416 240.744C55.7243 241.149 56.503 241.352 57.3776 241.352ZM77.0924 245.32C75.6844 245.32 74.415 244.936 73.2844 244.168C72.1537 243.4 71.2577 242.355 70.5964 241.032C69.935 239.709 69.6044 238.195 69.6044 236.488C69.6044 234.781 69.935 233.277 70.5964 231.976C71.279 230.653 72.1964 229.619 73.3484 228.872C74.5004 228.104 75.8124 227.72 77.2844 227.72C78.1164 227.72 78.8737 227.848 79.5564 228.104C80.2604 228.339 80.8684 228.669 81.3804 229.096C81.9137 229.523 82.3617 230.013 82.7244 230.568C83.087 231.123 83.343 231.72 83.4924 232.36L82.5324 232.2V228.072H87.0444V245H82.4684V240.936L83.4924 240.84C83.3217 241.437 83.0444 242.003 82.6604 242.536C82.2764 243.069 81.7964 243.549 81.2204 243.976C80.6657 244.381 80.0364 244.712 79.3324 244.968C78.6284 245.203 77.8817 245.32 77.0924 245.32ZM78.3404 241.384C79.1937 241.384 79.9404 241.181 80.5804 240.776C81.2204 240.371 81.711 239.805 82.0524 239.08C82.415 238.333 82.5964 237.469 82.5964 236.488C82.5964 235.528 82.415 234.685 82.0524 233.96C81.711 233.235 81.2204 232.669 80.5804 232.264C79.9404 231.837 79.1937 231.624 78.3404 231.624C77.5084 231.624 76.7724 231.837 76.1324 232.264C75.5137 232.669 75.023 233.235 74.6604 233.96C74.2977 234.685 74.1164 235.528 74.1164 236.488C74.1164 237.469 74.2977 238.333 74.6604 239.08C75.023 239.805 75.5137 240.371 76.1324 240.776C76.7724 241.181 77.5084 241.384 78.3404 241.384ZM91.6001 245V228.072H95.9841L96.1441 233.512L95.3761 232.392C95.6321 231.517 96.0481 230.728 96.6241 230.024C97.2001 229.299 97.8721 228.733 98.6401 228.328C99.4295 227.923 100.251 227.72 101.104 227.72C101.467 227.72 101.819 227.752 102.16 227.816C102.501 227.88 102.789 227.955 103.024 228.04L101.808 233.032C101.552 232.904 101.243 232.797 100.88 232.712C100.517 232.605 100.144 232.552 99.7601 232.552C99.2481 232.552 98.7681 232.648 98.3201 232.84C97.8935 233.011 97.5201 233.267 97.2001 233.608C96.8801 233.928 96.6241 234.312 96.4321 234.76C96.2615 235.208 96.1761 235.699 96.1761 236.232V245H91.6001ZM116.756 245V226.888C116.756 225.843 116.991 224.893 117.46 224.04C117.929 223.187 118.569 222.515 119.38 222.024C120.212 221.533 121.183 221.288 122.292 221.288C123.039 221.288 123.743 221.416 124.404 221.672C125.065 221.907 125.631 222.237 126.1 222.664L124.756 225.992C124.479 225.821 124.191 225.683 123.892 225.576C123.615 225.448 123.359 225.384 123.124 225.384C122.719 225.384 122.377 225.459 122.1 225.608C121.844 225.736 121.652 225.939 121.524 226.216C121.396 226.472 121.332 226.803 121.332 227.208V245H119.06C118.569 245 118.132 245 117.748 245C117.364 245 117.033 245 116.756 245ZM114.228 232.328V228.488H124.98V232.328H114.228ZM135.413 245.32C133.579 245.32 131.979 244.947 130.613 244.2C129.248 243.453 128.181 242.429 127.413 241.128C126.645 239.827 126.261 238.333 126.261 236.648C126.261 235.347 126.475 234.152 126.901 233.064C127.328 231.976 127.925 231.037 128.693 230.248C129.461 229.437 130.368 228.819 131.413 228.392C132.48 227.944 133.632 227.72 134.869 227.72C136.021 227.72 137.088 227.933 138.069 228.36C139.051 228.765 139.893 229.352 140.597 230.12C141.323 230.867 141.877 231.752 142.261 232.776C142.645 233.8 142.816 234.92 142.773 236.136L142.741 237.544H129.141L128.405 234.76H138.997L138.485 235.336V234.632C138.443 234.056 138.251 233.533 137.909 233.064C137.589 232.595 137.173 232.232 136.661 231.976C136.149 231.72 135.573 231.592 134.933 231.592C133.995 231.592 133.195 231.773 132.533 232.136C131.893 232.499 131.403 233.032 131.061 233.736C130.72 234.44 130.549 235.293 130.549 236.296C130.549 237.32 130.763 238.205 131.189 238.952C131.637 239.699 132.256 240.285 133.045 240.712C133.856 241.117 134.805 241.32 135.893 241.32C136.64 241.32 137.323 241.203 137.941 240.968C138.56 240.733 139.221 240.328 139.925 239.752L142.101 242.792C141.483 243.347 140.8 243.816 140.053 244.2C139.307 244.563 138.539 244.84 137.749 245.032C136.96 245.224 136.181 245.32 135.413 245.32ZM146.515 245V228.072H151.059V245H146.515ZM148.755 224.584C147.881 224.584 147.198 224.371 146.707 223.944C146.217 223.517 145.971 222.909 145.971 222.12C145.971 221.395 146.217 220.808 146.707 220.36C147.219 219.891 147.902 219.656 148.755 219.656C149.63 219.656 150.313 219.88 150.803 220.328C151.294 220.755 151.539 221.352 151.539 222.12C151.539 222.867 151.283 223.464 150.771 223.912C150.281 224.36 149.609 224.584 148.755 224.584ZM157.545 245V223.784H162.089V245H157.545ZM154.377 232.136V228.072H165.545V232.136H154.377ZM176.222 245.32C174.494 245.32 172.947 244.947 171.582 244.2C170.238 243.432 169.171 242.387 168.382 241.064C167.614 239.741 167.23 238.227 167.23 236.52C167.23 234.813 167.614 233.309 168.382 232.008C169.171 230.685 170.238 229.64 171.582 228.872C172.947 228.104 174.494 227.72 176.222 227.72C177.929 227.72 179.454 228.104 180.798 228.872C182.163 229.64 183.23 230.685 183.998 232.008C184.766 233.309 185.15 234.813 185.15 236.52C185.15 238.227 184.766 239.741 183.998 241.064C183.23 242.387 182.163 243.432 180.798 244.2C179.454 244.947 177.929 245.32 176.222 245.32ZM176.222 241.352C177.054 241.352 177.801 241.149 178.462 240.744C179.123 240.317 179.635 239.741 179.998 239.016C180.382 238.269 180.574 237.437 180.574 236.52C180.574 235.581 180.382 234.749 179.998 234.024C179.635 233.277 179.123 232.701 178.462 232.296C177.801 231.869 177.054 231.656 176.222 231.656C175.369 231.656 174.611 231.869 173.95 232.296C173.289 232.723 172.766 233.299 172.382 234.024C171.998 234.749 171.817 235.581 171.838 236.52C171.817 237.437 171.998 238.269 172.382 239.016C172.766 239.741 173.289 240.317 173.95 240.744C174.611 241.149 175.369 241.352 176.222 241.352ZM198.381 252.04V228.072H202.765L202.893 231.88L202.061 231.592C202.211 230.909 202.573 230.28 203.149 229.704C203.747 229.128 204.483 228.659 205.357 228.296C206.232 227.933 207.149 227.752 208.109 227.752C209.581 227.752 210.883 228.136 212.013 228.904C213.165 229.651 214.072 230.685 214.733 232.008C215.416 233.309 215.757 234.813 215.757 236.52C215.757 238.205 215.427 239.709 214.765 241.032C214.104 242.355 213.197 243.4 212.045 244.168C210.893 244.915 209.581 245.288 208.109 245.288C207.128 245.288 206.189 245.107 205.293 244.744C204.419 244.36 203.672 243.859 203.053 243.24C202.435 242.621 202.051 241.96 201.901 241.256L202.957 240.808V252.04H198.381ZM207.085 241.384C207.917 241.384 208.653 241.181 209.293 240.776C209.933 240.371 210.435 239.805 210.797 239.08C211.16 238.333 211.341 237.48 211.341 236.52C211.341 235.56 211.16 234.717 210.797 233.992C210.435 233.267 209.933 232.701 209.293 232.296C208.675 231.891 207.939 231.688 207.085 231.688C206.232 231.688 205.485 231.891 204.845 232.296C204.205 232.68 203.704 233.245 203.341 233.992C202.979 234.717 202.797 235.56 202.797 236.52C202.797 237.48 202.979 238.333 203.341 239.08C203.704 239.805 204.205 240.371 204.845 240.776C205.485 241.181 206.232 241.384 207.085 241.384ZM225.53 245.32C224.122 245.32 222.853 244.936 221.722 244.168C220.591 243.4 219.695 242.355 219.034 241.032C218.373 239.709 218.042 238.195 218.042 236.488C218.042 234.781 218.373 233.277 219.034 231.976C219.717 230.653 220.634 229.619 221.786 228.872C222.938 228.104 224.25 227.72 225.722 227.72C226.554 227.72 227.311 227.848 227.994 228.104C228.698 228.339 229.306 228.669 229.818 229.096C230.351 229.523 230.799 230.013 231.162 230.568C231.525 231.123 231.781 231.72 231.93 232.36L230.97 232.2V228.072H235.482V245H230.906V240.936L231.93 240.84C231.759 241.437 231.482 242.003 231.098 242.536C230.714 243.069 230.234 243.549 229.658 243.976C229.103 244.381 228.474 244.712 227.77 244.968C227.066 245.203 226.319 245.32 225.53 245.32ZM226.778 241.384C227.631 241.384 228.378 241.181 229.018 240.776C229.658 240.371 230.149 239.805 230.49 239.08C230.853 238.333 231.034 237.469 231.034 236.488C231.034 235.528 230.853 234.685 230.49 233.96C230.149 233.235 229.658 232.669 229.018 232.264C228.378 231.837 227.631 231.624 226.778 231.624C225.946 231.624 225.21 231.837 224.57 232.264C223.951 232.669 223.461 233.235 223.098 233.96C222.735 234.685 222.554 235.528 222.554 236.488C222.554 237.469 222.735 238.333 223.098 239.08C223.461 239.805 223.951 240.371 224.57 240.776C225.21 241.181 225.946 241.384 226.778 241.384ZM240.038 245V228.072H244.422L244.582 233.512L243.814 232.392C244.07 231.517 244.486 230.728 245.062 230.024C245.638 229.299 246.31 228.733 247.078 228.328C247.867 227.923 248.688 227.72 249.542 227.72C249.904 227.72 250.256 227.752 250.598 227.816C250.939 227.88 251.227 227.955 251.462 228.04L250.246 233.032C249.99 232.904 249.68 232.797 249.318 232.712C248.955 232.605 248.582 232.552 248.198 232.552C247.686 232.552 247.206 232.648 246.758 232.84C246.331 233.011 245.958 233.267 245.638 233.608C245.318 233.928 245.062 234.312 244.87 234.76C244.699 235.208 244.614 235.699 244.614 236.232V245H240.038ZM259.686 245.32C258.278 245.32 257.009 244.936 255.878 244.168C254.747 243.4 253.851 242.355 253.19 241.032C252.529 239.709 252.198 238.195 252.198 236.488C252.198 234.781 252.529 233.277 253.19 231.976C253.873 230.653 254.79 229.619 255.942 228.872C257.094 228.104 258.406 227.72 259.878 227.72C260.71 227.72 261.467 227.848 262.15 228.104C262.854 228.339 263.462 228.669 263.974 229.096C264.507 229.523 264.955 230.013 265.318 230.568C265.681 231.123 265.937 231.72 266.086 232.36L265.126 232.2V228.072H269.638V245H265.062V240.936L266.086 240.84C265.915 241.437 265.638 242.003 265.254 242.536C264.87 243.069 264.39 243.549 263.814 243.976C263.259 244.381 262.63 244.712 261.926 244.968C261.222 245.203 260.475 245.32 259.686 245.32ZM260.934 241.384C261.787 241.384 262.534 241.181 263.174 240.776C263.814 240.371 264.305 239.805 264.646 239.08C265.009 238.333 265.19 237.469 265.19 236.488C265.19 235.528 265.009 234.685 264.646 233.96C264.305 233.235 263.814 232.669 263.174 232.264C262.534 231.837 261.787 231.624 260.934 231.624C260.102 231.624 259.366 231.837 258.726 232.264C258.107 232.669 257.617 233.235 257.254 233.96C256.891 234.685 256.71 235.528 256.71 236.488C256.71 237.469 256.891 238.333 257.254 239.08C257.617 239.805 258.107 240.371 258.726 240.776C259.366 241.181 260.102 241.384 260.934 241.384ZM289.318 245L282.214 228.072H287.206L291.718 240.712L290.662 240.904L295.398 228.072H300.262L292.806 245H289.318ZM310.441 245.32C308.713 245.32 307.166 244.947 305.801 244.2C304.457 243.432 303.39 242.387 302.601 241.064C301.833 239.741 301.449 238.227 301.449 236.52C301.449 234.813 301.833 233.309 302.601 232.008C303.39 230.685 304.457 229.64 305.801 228.872C307.166 228.104 308.713 227.72 310.441 227.72C312.148 227.72 313.673 228.104 315.017 228.872C316.382 229.64 317.449 230.685 318.217 232.008C318.985 233.309 319.369 234.813 319.369 236.52C319.369 238.227 318.985 239.741 318.217 241.064C317.449 242.387 316.382 243.432 315.017 244.2C313.673 244.947 312.148 245.32 310.441 245.32ZM310.441 241.352C311.273 241.352 312.02 241.149 312.681 240.744C313.342 240.317 313.854 239.741 314.217 239.016C314.601 238.269 314.793 237.437 314.793 236.52C314.793 235.581 314.601 234.749 314.217 234.024C313.854 233.277 313.342 232.701 312.681 232.296C312.02 231.869 311.273 231.656 310.441 231.656C309.588 231.656 308.83 231.869 308.169 232.296C307.508 232.723 306.985 233.299 306.601 234.024C306.217 234.749 306.036 235.581 306.057 236.52C306.036 237.437 306.217 238.269 306.601 239.016C306.985 239.741 307.508 240.317 308.169 240.744C308.83 241.149 309.588 241.352 310.441 241.352ZM330.148 245.32C328.526 245.32 327.076 244.936 325.796 244.168C324.516 243.4 323.502 242.355 322.756 241.032C322.03 239.709 321.668 238.205 321.668 236.52C321.668 234.856 322.03 233.363 322.756 232.04C323.502 230.696 324.516 229.64 325.796 228.872C327.076 228.104 328.526 227.72 330.148 227.72C331.662 227.72 333.049 227.997 334.308 228.552C335.566 229.107 336.548 229.875 337.252 230.856L334.756 233.864C334.457 233.459 334.084 233.096 333.636 232.776C333.188 232.435 332.697 232.168 332.164 231.976C331.652 231.784 331.118 231.688 330.564 231.688C329.689 231.688 328.91 231.901 328.228 232.328C327.566 232.733 327.044 233.299 326.66 234.024C326.276 234.749 326.084 235.581 326.084 236.52C326.084 237.437 326.276 238.259 326.66 238.984C327.065 239.688 327.609 240.264 328.292 240.712C328.974 241.139 329.742 241.352 330.596 241.352C331.15 241.352 331.673 241.277 332.164 241.128C332.654 240.957 333.113 240.712 333.54 240.392C333.988 240.072 334.393 239.688 334.756 239.24L337.22 242.248C336.494 243.165 335.492 243.912 334.212 244.488C332.932 245.043 331.577 245.32 330.148 245.32ZM348.163 245.32C346.329 245.32 344.729 244.947 343.363 244.2C341.998 243.453 340.931 242.429 340.163 241.128C339.395 239.827 339.011 238.333 339.011 236.648C339.011 235.347 339.225 234.152 339.651 233.064C340.078 231.976 340.675 231.037 341.443 230.248C342.211 229.437 343.118 228.819 344.163 228.392C345.23 227.944 346.382 227.72 347.619 227.72C348.771 227.72 349.838 227.933 350.819 228.36C351.801 228.765 352.643 229.352 353.347 230.12C354.073 230.867 354.627 231.752 355.011 232.776C355.395 233.8 355.566 234.92 355.523 236.136L355.491 237.544H341.891L341.155 234.76H351.747L351.235 235.336V234.632C351.193 234.056 351.001 233.533 350.659 233.064C350.339 232.595 349.923 232.232 349.411 231.976C348.899 231.72 348.323 231.592 347.683 231.592C346.745 231.592 345.945 231.773 345.283 232.136C344.643 232.499 344.153 233.032 343.811 233.736C343.47 234.44 343.299 235.293 343.299 236.296C343.299 237.32 343.513 238.205 343.939 238.952C344.387 239.699 345.006 240.285 345.795 240.712C346.606 241.117 347.555 241.32 348.643 241.32C349.39 241.32 350.073 241.203 350.691 240.968C351.31 240.733 351.971 240.328 352.675 239.752L354.851 242.792C354.233 243.347 353.55 243.816 352.803 244.2C352.057 244.563 351.289 244.84 350.499 245.032C349.71 245.224 348.931 245.32 348.163 245.32ZM343.459 225.704L341.827 224.296L346.147 220.328H349.091L353.411 224.296L351.779 225.704L347.139 223.08H348.099L343.459 225.704Z" fill="#FDFDFD"/>
<path d="M44.3665 205.32C42.5318 205.32 40.9318 204.947 39.5665 204.2C38.2012 203.453 37.1345 202.429 36.3665 201.128C35.5985 199.827 35.2145 198.333 35.2145 196.648C35.2145 195.347 35.4278 194.152 35.8545 193.064C36.2812 191.976 36.8785 191.037 37.6465 190.248C38.4145 189.437 39.3212 188.819 40.3665 188.392C41.4332 187.944 42.5852 187.72 43.8225 187.72C44.9745 187.72 46.0412 187.933 47.0225 188.36C48.0038 188.765 48.8465 189.352 49.5505 190.12C50.2758 190.867 50.8305 191.752 51.2145 192.776C51.5985 193.8 51.7692 194.92 51.7265 196.136L51.6945 197.544H38.0945L37.3585 194.76H47.9505L47.4385 195.336V194.632C47.3958 194.056 47.2038 193.533 46.8625 193.064C46.5425 192.595 46.1265 192.232 45.6145 191.976C45.1025 191.72 44.5265 191.592 43.8865 191.592C42.9478 191.592 42.1478 191.773 41.4865 192.136C40.8465 192.499 40.3558 193.032 40.0145 193.736C39.6732 194.44 39.5025 195.293 39.5025 196.296C39.5025 197.32 39.7158 198.205 40.1425 198.952C40.5905 199.699 41.2092 200.285 41.9985 200.712C42.8092 201.117 43.7585 201.32 44.8465 201.32C45.5932 201.32 46.2758 201.203 46.8945 200.968C47.5132 200.733 48.1745 200.328 48.8785 199.752L51.0545 202.792C50.4358 203.347 49.7532 203.816 49.0065 204.2C48.2598 204.563 47.4918 204.84 46.7025 205.032C45.9132 205.224 45.1345 205.32 44.3665 205.32ZM65.6788 205L61.4868 199.016L60.2068 197.224L53.3588 188.072H58.8628L62.9588 193.864L64.3668 195.784L71.1188 205H65.6788ZM53.2948 205L60.0468 195.752L62.5428 198.728L58.6388 205H53.2948ZM64.1748 197.384L61.7428 194.408L65.3588 188.072H70.7028L64.1748 197.384ZM73.9283 212.04V188.072H78.3123L78.4403 191.88L77.6083 191.592C77.7576 190.909 78.1203 190.28 78.6963 189.704C79.2936 189.128 80.0296 188.659 80.9043 188.296C81.7789 187.933 82.6963 187.752 83.6563 187.752C85.1283 187.752 86.4296 188.136 87.5603 188.904C88.7123 189.651 89.6189 190.685 90.2803 192.008C90.9629 193.309 91.3043 194.813 91.3043 196.52C91.3043 198.205 90.9736 199.709 90.3123 201.032C89.6509 202.355 88.7443 203.4 87.5923 204.168C86.4403 204.915 85.1283 205.288 83.6563 205.288C82.6749 205.288 81.7363 205.107 80.8403 204.744C79.9656 204.36 79.2189 203.859 78.6003 203.24C77.9816 202.621 77.5976 201.96 77.4483 201.256L78.5043 200.808V212.04H73.9283ZM82.6323 201.384C83.4643 201.384 84.2003 201.181 84.8403 200.776C85.4803 200.371 85.9816 199.805 86.3443 199.08C86.7069 198.333 86.8883 197.48 86.8883 196.52C86.8883 195.56 86.7069 194.717 86.3443 193.992C85.9816 193.267 85.4803 192.701 84.8403 192.296C84.2216 191.891 83.4856 191.688 82.6323 191.688C81.7789 191.688 81.0323 191.891 80.3923 192.296C79.7523 192.68 79.2509 193.245 78.8883 193.992C78.5256 194.717 78.3443 195.56 78.3443 196.52C78.3443 197.48 78.5256 198.333 78.8883 199.08C79.2509 199.805 79.7523 200.371 80.3923 200.776C81.0323 201.181 81.7789 201.384 82.6323 201.384ZM102.773 205.32C100.938 205.32 99.3381 204.947 97.9728 204.2C96.6074 203.453 95.5408 202.429 94.7728 201.128C94.0048 199.827 93.6208 198.333 93.6208 196.648C93.6208 195.347 93.8341 194.152 94.2608 193.064C94.6874 191.976 95.2848 191.037 96.0528 190.248C96.8208 189.437 97.7274 188.819 98.7728 188.392C99.8394 187.944 100.991 187.72 102.229 187.72C103.381 187.72 104.447 187.933 105.429 188.36C106.41 188.765 107.253 189.352 107.957 190.12C108.682 190.867 109.237 191.752 109.621 192.776C110.005 193.8 110.175 194.92 110.133 196.136L110.101 197.544H96.5008L95.7648 194.76H106.357L105.845 195.336V194.632C105.802 194.056 105.61 193.533 105.269 193.064C104.949 192.595 104.533 192.232 104.021 191.976C103.509 191.72 102.933 191.592 102.293 191.592C101.354 191.592 100.554 191.773 99.8928 192.136C99.2528 192.499 98.7621 193.032 98.4208 193.736C98.0794 194.44 97.9088 195.293 97.9088 196.296C97.9088 197.32 98.1221 198.205 98.5488 198.952C98.9968 199.699 99.6154 200.285 100.405 200.712C101.215 201.117 102.165 201.32 103.253 201.32C103.999 201.32 104.682 201.203 105.301 200.968C105.919 200.733 106.581 200.328 107.285 199.752L109.461 202.792C108.842 203.347 108.159 203.816 107.413 204.2C106.666 204.563 105.898 204.84 105.109 205.032C104.319 205.224 103.541 205.32 102.773 205.32ZM113.491 205V188.072H117.875L118.035 193.512L117.267 192.392C117.523 191.517 117.939 190.728 118.515 190.024C119.091 189.299 119.763 188.733 120.531 188.328C121.32 187.923 122.141 187.72 122.995 187.72C123.357 187.72 123.709 187.752 124.051 187.816C124.392 187.88 124.68 187.955 124.915 188.04L123.699 193.032C123.443 192.904 123.133 192.797 122.771 192.712C122.408 192.605 122.035 192.552 121.651 192.552C121.139 192.552 120.659 192.648 120.211 192.84C119.784 193.011 119.411 193.267 119.091 193.608C118.771 193.928 118.515 194.312 118.323 194.76C118.152 195.208 118.067 195.699 118.067 196.232V205H113.491ZM127.906 205V188.072H132.45V205H127.906ZM130.146 184.584C129.271 184.584 128.589 184.371 128.098 183.944C127.607 183.517 127.362 182.909 127.362 182.12C127.362 181.395 127.607 180.808 128.098 180.36C128.61 179.891 129.293 179.656 130.146 179.656C131.021 179.656 131.703 179.88 132.194 180.328C132.685 180.755 132.93 181.352 132.93 182.12C132.93 182.867 132.674 183.464 132.162 183.912C131.671 184.36 130.999 184.584 130.146 184.584ZM145.335 205.32C143.501 205.32 141.901 204.947 140.535 204.2C139.17 203.453 138.103 202.429 137.335 201.128C136.567 199.827 136.183 198.333 136.183 196.648C136.183 195.347 136.397 194.152 136.823 193.064C137.25 191.976 137.847 191.037 138.615 190.248C139.383 189.437 140.29 188.819 141.335 188.392C142.402 187.944 143.554 187.72 144.791 187.72C145.943 187.72 147.01 187.933 147.991 188.36C148.973 188.765 149.815 189.352 150.519 190.12C151.245 190.867 151.799 191.752 152.183 192.776C152.567 193.8 152.738 194.92 152.695 196.136L152.663 197.544H139.063L138.327 194.76H148.919L148.407 195.336V194.632C148.365 194.056 148.173 193.533 147.831 193.064C147.511 192.595 147.095 192.232 146.583 191.976C146.071 191.72 145.495 191.592 144.855 191.592C143.917 191.592 143.117 191.773 142.455 192.136C141.815 192.499 141.325 193.032 140.983 193.736C140.642 194.44 140.471 195.293 140.471 196.296C140.471 197.32 140.685 198.205 141.111 198.952C141.559 199.699 142.178 200.285 142.967 200.712C143.778 201.117 144.727 201.32 145.815 201.32C146.562 201.32 147.245 201.203 147.863 200.968C148.482 200.733 149.143 200.328 149.847 199.752L152.023 202.792C151.405 203.347 150.722 203.816 149.975 204.2C149.229 204.563 148.461 204.84 147.671 205.032C146.882 205.224 146.103 205.32 145.335 205.32ZM140.631 185.704L138.999 184.296L143.319 180.328H146.263L150.583 184.296L148.951 185.704L144.311 183.08H145.271L140.631 185.704ZM156.053 205V188.072H160.405L160.533 191.528L159.637 191.912C159.872 191.144 160.288 190.451 160.885 189.832C161.504 189.192 162.24 188.68 163.093 188.296C163.947 187.912 164.843 187.72 165.781 187.72C167.061 187.72 168.128 187.976 168.981 188.488C169.856 189 170.507 189.779 170.933 190.824C171.381 191.848 171.605 193.117 171.605 194.632V205H167.061V194.984C167.061 194.216 166.955 193.576 166.741 193.064C166.528 192.552 166.197 192.179 165.749 191.944C165.323 191.688 164.789 191.581 164.149 191.624C163.637 191.624 163.157 191.709 162.709 191.88C162.283 192.029 161.909 192.253 161.589 192.552C161.291 192.851 161.045 193.192 160.853 193.576C160.683 193.96 160.597 194.376 160.597 194.824V205H158.357C157.867 205 157.429 205 157.045 205C156.661 205 156.331 205 156.053 205ZM183.32 205.32C181.698 205.32 180.248 204.936 178.968 204.168C177.688 203.4 176.674 202.355 175.928 201.032C175.202 199.709 174.84 198.205 174.84 196.52C174.84 194.856 175.202 193.363 175.928 192.04C176.674 190.696 177.688 189.64 178.968 188.872C180.248 188.104 181.698 187.72 183.32 187.72C184.834 187.72 186.221 187.997 187.48 188.552C188.738 189.107 189.72 189.875 190.424 190.856L187.928 193.864C187.629 193.459 187.256 193.096 186.808 192.776C186.36 192.435 185.869 192.168 185.336 191.976C184.824 191.784 184.29 191.688 183.736 191.688C182.861 191.688 182.082 191.901 181.4 192.328C180.738 192.733 180.216 193.299 179.832 194.024C179.448 194.749 179.256 195.581 179.256 196.52C179.256 197.437 179.448 198.259 179.832 198.984C180.237 199.688 180.781 200.264 181.464 200.712C182.146 201.139 182.914 201.352 183.768 201.352C184.322 201.352 184.845 201.277 185.336 201.128C185.826 200.957 186.285 200.712 186.712 200.392C187.16 200.072 187.565 199.688 187.928 199.24L190.392 202.248C189.666 203.165 188.664 203.912 187.384 204.488C186.104 205.043 184.749 205.32 183.32 205.32ZM193.687 205V188.072H198.231V205H193.687ZM195.927 184.584C195.053 184.584 194.37 184.371 193.879 183.944C193.389 183.517 193.143 182.909 193.143 182.12C193.143 181.395 193.389 180.808 193.879 180.36C194.391 179.891 195.074 179.656 195.927 179.656C196.802 179.656 197.485 179.88 197.975 180.328C198.466 180.755 198.711 181.352 198.711 182.12C198.711 182.867 198.455 183.464 197.943 183.912C197.453 184.36 196.781 184.584 195.927 184.584ZM209.421 205.32C208.013 205.32 206.743 204.936 205.613 204.168C204.482 203.4 203.586 202.355 202.924 201.032C202.263 199.709 201.933 198.195 201.933 196.488C201.933 194.781 202.263 193.277 202.924 191.976C203.607 190.653 204.525 189.619 205.677 188.872C206.829 188.104 208.141 187.72 209.613 187.72C210.445 187.72 211.202 187.848 211.885 188.104C212.589 188.339 213.197 188.669 213.709 189.096C214.242 189.523 214.69 190.013 215.053 190.568C215.415 191.123 215.671 191.72 215.821 192.36L214.861 192.2V188.072H219.373V205H214.797V200.936L215.821 200.84C215.65 201.437 215.373 202.003 214.989 202.536C214.605 203.069 214.125 203.549 213.549 203.976C212.994 204.381 212.365 204.712 211.661 204.968C210.957 205.203 210.21 205.32 209.421 205.32ZM210.669 201.384C211.522 201.384 212.269 201.181 212.909 200.776C213.549 200.371 214.039 199.805 214.381 199.08C214.743 198.333 214.925 197.469 214.925 196.488C214.925 195.528 214.743 194.685 214.381 193.96C214.039 193.235 213.549 192.669 212.909 192.264C212.269 191.837 211.522 191.624 210.669 191.624C209.837 191.624 209.101 191.837 208.461 192.264C207.842 192.669 207.351 193.235 206.989 193.96C206.626 194.685 206.445 195.528 206.445 196.488C206.445 197.469 206.626 198.333 206.989 199.08C207.351 199.805 207.842 200.371 208.461 200.776C209.101 201.181 209.837 201.384 210.669 201.384Z" fill="#EDEAFD"/>
<path d="M31.6548 312.364H33.0639V320.068C33.0639 320.864 32.8764 321.574 32.5014 322.199C32.1302 322.82 31.6056 323.311 30.9276 323.67C30.2495 324.027 29.4541 324.205 28.5412 324.205C27.6283 324.205 26.8329 324.027 26.1548 323.67C25.4768 323.311 24.9503 322.82 24.5753 322.199C24.2041 321.574 24.0185 320.864 24.0185 320.068V312.364H25.4276V319.955C25.4276 320.523 25.5526 321.028 25.8026 321.472C26.0526 321.911 26.4086 322.258 26.8707 322.511C27.3366 322.761 27.8935 322.886 28.5412 322.886C29.1889 322.886 29.7457 322.761 30.2116 322.511C30.6776 322.258 31.0336 321.911 31.2798 321.472C31.5298 321.028 31.6548 320.523 31.6548 319.955V312.364ZM35.696 324V315.273H36.9915V316.636H37.1051C37.2869 316.17 37.5805 315.809 37.9858 315.551C38.3911 315.29 38.8778 315.159 39.446 315.159C40.0218 315.159 40.5009 315.29 40.8835 315.551C41.2699 315.809 41.571 316.17 41.7869 316.636H41.8778C42.1013 316.186 42.4366 315.828 42.8835 315.562C43.3305 315.294 43.8665 315.159 44.4915 315.159C45.2718 315.159 45.91 315.403 46.4062 315.892C46.9025 316.377 47.1506 317.133 47.1506 318.159V324H45.8097V318.159C45.8097 317.515 45.6335 317.055 45.2812 316.778C44.929 316.502 44.5142 316.364 44.0369 316.364C43.4233 316.364 42.9479 316.549 42.6108 316.92C42.2737 317.288 42.1051 317.754 42.1051 318.318V324H40.7415V318.023C40.7415 317.527 40.5805 317.127 40.2585 316.824C39.9366 316.517 39.5218 316.364 39.0142 316.364C38.6657 316.364 38.34 316.456 38.0369 316.642C37.7377 316.828 37.4953 317.085 37.3097 317.415C37.1278 317.741 37.0369 318.117 37.0369 318.545V324H35.696ZM56.6705 324.205C56.1174 324.205 55.6155 324.1 55.1648 323.892C54.714 323.68 54.3561 323.375 54.0909 322.977C53.8258 322.576 53.6932 322.091 53.6932 321.523C53.6932 321.023 53.7917 320.617 53.9886 320.307C54.1856 319.992 54.4489 319.746 54.7784 319.568C55.108 319.39 55.4716 319.258 55.8693 319.17C56.2708 319.08 56.6742 319.008 57.0795 318.955C57.6098 318.886 58.0398 318.835 58.3693 318.801C58.7027 318.763 58.9451 318.701 59.0966 318.614C59.2519 318.527 59.3295 318.375 59.3295 318.159V318.114C59.3295 317.553 59.1761 317.117 58.8693 316.807C58.5663 316.496 58.1061 316.341 57.4886 316.341C56.8485 316.341 56.3466 316.481 55.983 316.761C55.6193 317.042 55.3636 317.341 55.2159 317.659L53.9432 317.205C54.1705 316.674 54.4735 316.261 54.8523 315.966C55.2348 315.667 55.6515 315.458 56.1023 315.341C56.5568 315.22 57.0038 315.159 57.4432 315.159C57.7235 315.159 58.0455 315.193 58.4091 315.261C58.7765 315.326 59.1307 315.46 59.4716 315.665C59.8163 315.869 60.1023 316.178 60.3295 316.591C60.5568 317.004 60.6705 317.557 60.6705 318.25V324H59.3295V322.818H59.2614C59.1705 323.008 59.0189 323.21 58.8068 323.426C58.5947 323.642 58.3125 323.826 57.9602 323.977C57.608 324.129 57.178 324.205 56.6705 324.205ZM56.875 323C57.4053 323 57.8523 322.896 58.2159 322.688C58.5833 322.479 58.8598 322.21 59.0455 321.881C59.2348 321.551 59.3295 321.205 59.3295 320.841V319.614C59.2727 319.682 59.1477 319.744 58.9545 319.801C58.7652 319.854 58.5455 319.902 58.2955 319.943C58.0492 319.981 57.8087 320.015 57.5739 320.045C57.3428 320.072 57.1553 320.095 57.0114 320.114C56.6629 320.159 56.3371 320.233 56.0341 320.335C55.7348 320.434 55.4924 320.583 55.3068 320.784C55.125 320.981 55.0341 321.25 55.0341 321.591C55.0341 322.057 55.2064 322.409 55.5511 322.648C55.8996 322.883 56.3409 323 56.875 323ZM63.1179 324V315.273H64.4134V316.636H64.527C64.7088 316.17 65.0024 315.809 65.4077 315.551C65.813 315.29 66.2997 315.159 66.8679 315.159C67.4437 315.159 67.9228 315.29 68.3054 315.551C68.6918 315.809 68.9929 316.17 69.2088 316.636H69.2997C69.5232 316.186 69.8584 315.828 70.3054 315.562C70.7524 315.294 71.2884 315.159 71.9134 315.159C72.6937 315.159 73.3319 315.403 73.8281 315.892C74.3243 316.377 74.5724 317.133 74.5724 318.159V324H73.2315V318.159C73.2315 317.515 73.0554 317.055 72.7031 316.778C72.3509 316.502 71.9361 316.364 71.4588 316.364C70.8452 316.364 70.3698 316.549 70.0327 316.92C69.6955 317.288 69.527 317.754 69.527 318.318V324H68.1634V318.023C68.1634 317.527 68.0024 317.127 67.6804 316.824C67.3584 316.517 66.9437 316.364 66.4361 316.364C66.0876 316.364 65.7618 316.456 65.4588 316.642C65.1596 316.828 64.9171 317.085 64.7315 317.415C64.5497 317.741 64.4588 318.117 64.4588 318.545V324H63.1179ZM77.206 324V312.364H78.5469V316.659H78.6605C78.759 316.508 78.8954 316.314 79.0696 316.08C79.2476 315.841 79.5014 315.629 79.831 315.443C80.1643 315.254 80.6151 315.159 81.1832 315.159C81.9181 315.159 82.5658 315.343 83.1264 315.71C83.687 316.078 84.1245 316.598 84.4389 317.273C84.7533 317.947 84.9105 318.742 84.9105 319.659C84.9105 320.583 84.7533 321.384 84.4389 322.062C84.1245 322.737 83.6889 323.259 83.1321 323.631C82.5753 323.998 81.9332 324.182 81.206 324.182C80.6454 324.182 80.1965 324.089 79.8594 323.903C79.5223 323.714 79.2628 323.5 79.081 323.261C78.8991 323.019 78.759 322.818 78.6605 322.659H78.5014V324H77.206ZM78.5241 319.636C78.5241 320.295 78.6207 320.877 78.8139 321.381C79.0071 321.881 79.2893 322.273 79.6605 322.557C80.0317 322.837 80.4863 322.977 81.0241 322.977C81.5848 322.977 82.0526 322.83 82.4276 322.534C82.8063 322.235 83.0904 321.833 83.2798 321.33C83.473 320.822 83.5696 320.258 83.5696 319.636C83.5696 319.023 83.4749 318.47 83.2855 317.977C83.0999 317.481 82.8177 317.089 82.4389 316.801C82.0639 316.509 81.5923 316.364 81.0241 316.364C80.4787 316.364 80.0204 316.502 79.6491 316.778C79.2779 317.051 78.9976 317.434 78.8082 317.926C78.6188 318.415 78.5241 318.985 78.5241 319.636ZM86.9616 324V315.273H88.3026V324H86.9616ZM87.6435 313.818C87.3821 313.818 87.1567 313.729 86.9673 313.551C86.7817 313.373 86.6889 313.159 86.6889 312.909C86.6889 312.659 86.7817 312.445 86.9673 312.267C87.1567 312.089 87.3821 312 87.6435 312C87.9048 312 88.1283 312.089 88.3139 312.267C88.5033 312.445 88.598 312.659 88.598 312.909C88.598 313.159 88.5033 313.373 88.3139 313.551C88.1283 313.729 87.9048 313.818 87.6435 313.818ZM94.4176 324.182C93.5767 324.182 92.8513 323.996 92.2415 323.625C91.6354 323.25 91.1676 322.727 90.8381 322.057C90.5123 321.383 90.3494 320.598 90.3494 319.705C90.3494 318.811 90.5123 318.023 90.8381 317.341C91.1676 316.655 91.6259 316.121 92.2131 315.739C92.804 315.352 93.4934 315.159 94.2812 315.159C94.7358 315.159 95.1847 315.235 95.6278 315.386C96.071 315.538 96.4744 315.784 96.8381 316.125C97.2017 316.462 97.4915 316.909 97.7074 317.466C97.9233 318.023 98.0312 318.708 98.0312 319.523V320.091H91.304V318.932H96.6676C96.6676 318.439 96.5691 318 96.3722 317.614C96.179 317.227 95.9025 316.922 95.5426 316.699C95.1866 316.475 94.7661 316.364 94.2812 316.364C93.7472 316.364 93.285 316.496 92.8949 316.761C92.5085 317.023 92.2112 317.364 92.0028 317.784C91.7945 318.205 91.6903 318.655 91.6903 319.136V319.909C91.6903 320.568 91.804 321.127 92.0312 321.585C92.2623 322.04 92.5824 322.386 92.9915 322.625C93.4006 322.86 93.8759 322.977 94.4176 322.977C94.7699 322.977 95.0881 322.928 95.3722 322.83C95.66 322.727 95.9081 322.576 96.1165 322.375C96.3248 322.17 96.4858 321.917 96.5994 321.614L97.8949 321.977C97.7585 322.417 97.5294 322.803 97.2074 323.136C96.8854 323.466 96.4877 323.723 96.0142 323.909C95.5407 324.091 95.0085 324.182 94.4176 324.182ZM101.412 318.75V324H100.071V315.273H101.366V316.636H101.48C101.685 316.193 101.995 315.837 102.412 315.568C102.829 315.295 103.366 315.159 104.026 315.159C104.616 315.159 105.134 315.28 105.577 315.523C106.02 315.761 106.365 316.125 106.611 316.614C106.857 317.098 106.98 317.712 106.98 318.455V324H105.639V318.545C105.639 317.86 105.461 317.326 105.105 316.943C104.749 316.557 104.26 316.364 103.639 316.364C103.211 316.364 102.829 316.456 102.491 316.642C102.158 316.828 101.895 317.098 101.702 317.455C101.509 317.811 101.412 318.242 101.412 318.75ZM113.226 315.273V316.409H108.703V315.273H113.226ZM110.021 313.182H111.362V321.5C111.362 321.879 111.417 322.163 111.527 322.352C111.641 322.538 111.785 322.663 111.959 322.727C112.137 322.788 112.324 322.818 112.521 322.818C112.669 322.818 112.79 322.811 112.885 322.795C112.98 322.777 113.055 322.761 113.112 322.75L113.385 323.955C113.294 323.989 113.167 324.023 113.004 324.057C112.841 324.095 112.635 324.114 112.385 324.114C112.006 324.114 111.635 324.032 111.271 323.869C110.911 323.706 110.612 323.458 110.374 323.125C110.139 322.792 110.021 322.371 110.021 321.864V313.182ZM118.808 324.182C117.967 324.182 117.242 323.996 116.632 323.625C116.026 323.25 115.558 322.727 115.229 322.057C114.903 321.383 114.74 320.598 114.74 319.705C114.74 318.811 114.903 318.023 115.229 317.341C115.558 316.655 116.017 316.121 116.604 315.739C117.195 315.352 117.884 315.159 118.672 315.159C119.126 315.159 119.575 315.235 120.018 315.386C120.462 315.538 120.865 315.784 121.229 316.125C121.592 316.462 121.882 316.909 122.098 317.466C122.314 318.023 122.422 318.708 122.422 319.523V320.091H115.695V318.932H121.058C121.058 318.439 120.96 318 120.763 317.614C120.57 317.227 120.293 316.922 119.933 316.699C119.577 316.475 119.157 316.364 118.672 316.364C118.138 316.364 117.676 316.496 117.286 316.761C116.899 317.023 116.602 317.364 116.393 317.784C116.185 318.205 116.081 318.655 116.081 319.136V319.909C116.081 320.568 116.195 321.127 116.422 321.585C116.653 322.04 116.973 322.386 117.382 322.625C117.791 322.86 118.267 322.977 118.808 322.977C119.161 322.977 119.479 322.928 119.763 322.83C120.051 322.727 120.299 322.576 120.507 322.375C120.715 322.17 120.876 321.917 120.99 321.614L122.286 321.977C122.149 322.417 121.92 322.803 121.598 323.136C121.276 323.466 120.878 323.723 120.405 323.909C119.931 324.091 119.399 324.182 118.808 324.182ZM132.848 315.273V316.409H128.143V315.273H132.848ZM129.553 324V314.068C129.553 313.568 129.67 313.152 129.905 312.818C130.14 312.485 130.445 312.235 130.82 312.068C131.195 311.902 131.59 311.818 132.007 311.818C132.337 311.818 132.606 311.845 132.814 311.898C133.022 311.951 133.178 312 133.28 312.045L132.893 313.205C132.825 313.182 132.731 313.153 132.609 313.119C132.492 313.085 132.337 313.068 132.143 313.068C131.7 313.068 131.38 313.18 131.183 313.403C130.99 313.627 130.893 313.955 130.893 314.386V324H129.553ZM138.027 324.182C137.186 324.182 136.461 323.996 135.851 323.625C135.245 323.25 134.777 322.727 134.447 322.057C134.122 321.383 133.959 320.598 133.959 319.705C133.959 318.811 134.122 318.023 134.447 317.341C134.777 316.655 135.235 316.121 135.822 315.739C136.413 315.352 137.103 315.159 137.891 315.159C138.345 315.159 138.794 315.235 139.237 315.386C139.68 315.538 140.084 315.784 140.447 316.125C140.811 316.462 141.101 316.909 141.317 317.466C141.533 318.023 141.641 318.708 141.641 319.523V320.091H134.913V318.932H140.277C140.277 318.439 140.179 318 139.982 317.614C139.788 317.227 139.512 316.922 139.152 316.699C138.796 316.475 138.375 316.364 137.891 316.364C137.357 316.364 136.894 316.496 136.504 316.761C136.118 317.023 135.821 317.364 135.612 317.784C135.404 318.205 135.3 318.655 135.3 319.136V319.909C135.3 320.568 135.413 321.127 135.641 321.585C135.872 322.04 136.192 322.386 136.601 322.625C137.01 322.86 137.485 322.977 138.027 322.977C138.379 322.977 138.697 322.928 138.982 322.83C139.269 322.727 139.518 322.576 139.726 322.375C139.934 322.17 140.095 321.917 140.209 321.614L141.504 321.977C141.368 322.417 141.139 322.803 140.817 323.136C140.495 323.466 140.097 323.723 139.624 323.909C139.15 324.091 138.618 324.182 138.027 324.182ZM143.68 324V315.273H145.021V324H143.68ZM144.362 313.818C144.101 313.818 143.875 313.729 143.686 313.551C143.5 313.373 143.408 313.159 143.408 312.909C143.408 312.659 143.5 312.445 143.686 312.267C143.875 312.089 144.101 312 144.362 312C144.624 312 144.847 312.089 145.033 312.267C145.222 312.445 145.317 312.659 145.317 312.909C145.317 313.159 145.222 313.373 145.033 313.551C144.847 313.729 144.624 313.818 144.362 313.818ZM151.273 315.273V316.409H146.75V315.273H151.273ZM148.068 313.182H149.409V321.5C149.409 321.879 149.464 322.163 149.574 322.352C149.688 322.538 149.831 322.663 150.006 322.727C150.184 322.788 150.371 322.818 150.568 322.818C150.716 322.818 150.837 322.811 150.932 322.795C151.027 322.777 151.102 322.761 151.159 322.75L151.432 323.955C151.341 323.989 151.214 324.023 151.051 324.057C150.888 324.095 150.682 324.114 150.432 324.114C150.053 324.114 149.682 324.032 149.318 323.869C148.958 323.706 148.659 323.458 148.42 323.125C148.186 322.792 148.068 322.371 148.068 321.864V313.182ZM156.741 324.182C155.954 324.182 155.262 323.994 154.668 323.619C154.077 323.244 153.615 322.72 153.281 322.045C152.952 321.371 152.787 320.583 152.787 319.682C152.787 318.773 152.952 317.979 153.281 317.301C153.615 316.623 154.077 316.097 154.668 315.722C155.262 315.347 155.954 315.159 156.741 315.159C157.529 315.159 158.219 315.347 158.81 315.722C159.404 316.097 159.866 316.623 160.196 317.301C160.529 317.979 160.696 318.773 160.696 319.682C160.696 320.583 160.529 321.371 160.196 322.045C159.866 322.72 159.404 323.244 158.81 323.619C158.219 323.994 157.529 324.182 156.741 324.182ZM156.741 322.977C157.34 322.977 157.832 322.824 158.219 322.517C158.605 322.21 158.891 321.807 159.077 321.307C159.262 320.807 159.355 320.265 159.355 319.682C159.355 319.098 159.262 318.555 159.077 318.051C158.891 317.547 158.605 317.14 158.219 316.83C157.832 316.519 157.34 316.364 156.741 316.364C156.143 316.364 155.651 316.519 155.264 316.83C154.878 317.14 154.592 317.547 154.406 318.051C154.221 318.555 154.128 319.098 154.128 319.682C154.128 320.265 154.221 320.807 154.406 321.307C154.592 321.807 154.878 322.21 155.264 322.517C155.651 322.824 156.143 322.977 156.741 322.977ZM167.243 327.273V315.273H168.538V316.659H168.697C168.796 316.508 168.932 316.314 169.107 316.08C169.285 315.841 169.538 315.629 169.868 315.443C170.201 315.254 170.652 315.159 171.22 315.159C171.955 315.159 172.603 315.343 173.163 315.71C173.724 316.078 174.161 316.598 174.476 317.273C174.79 317.947 174.947 318.742 174.947 319.659C174.947 320.583 174.79 321.384 174.476 322.062C174.161 322.737 173.726 323.259 173.169 323.631C172.612 323.998 171.97 324.182 171.243 324.182C170.682 324.182 170.233 324.089 169.896 323.903C169.559 323.714 169.3 323.5 169.118 323.261C168.936 323.019 168.796 322.818 168.697 322.659H168.584V327.273H167.243ZM168.561 319.636C168.561 320.295 168.658 320.877 168.851 321.381C169.044 321.881 169.326 322.273 169.697 322.557C170.069 322.837 170.523 322.977 171.061 322.977C171.622 322.977 172.089 322.83 172.464 322.534C172.843 322.235 173.127 321.833 173.317 321.33C173.51 320.822 173.607 320.258 173.607 319.636C173.607 319.023 173.512 318.47 173.322 317.977C173.137 317.481 172.855 317.089 172.476 316.801C172.101 316.509 171.629 316.364 171.061 316.364C170.516 316.364 170.057 316.502 169.686 316.778C169.315 317.051 169.035 317.434 168.845 317.926C168.656 318.415 168.561 318.985 168.561 319.636ZM179.561 324.205C179.008 324.205 178.506 324.1 178.055 323.892C177.605 323.68 177.247 323.375 176.982 322.977C176.716 322.576 176.584 322.091 176.584 321.523C176.584 321.023 176.682 320.617 176.879 320.307C177.076 319.992 177.339 319.746 177.669 319.568C177.999 319.39 178.362 319.258 178.76 319.17C179.161 319.08 179.565 319.008 179.97 318.955C180.5 318.886 180.93 318.835 181.26 318.801C181.593 318.763 181.836 318.701 181.987 318.614C182.143 318.527 182.22 318.375 182.22 318.159V318.114C182.22 317.553 182.067 317.117 181.76 316.807C181.457 316.496 180.997 316.341 180.379 316.341C179.739 316.341 179.237 316.481 178.874 316.761C178.51 317.042 178.254 317.341 178.107 317.659L176.834 317.205C177.061 316.674 177.364 316.261 177.743 315.966C178.125 315.667 178.542 315.458 178.993 315.341C179.447 315.22 179.894 315.159 180.334 315.159C180.614 315.159 180.936 315.193 181.3 315.261C181.667 315.326 182.021 315.46 182.362 315.665C182.707 315.869 182.993 316.178 183.22 316.591C183.447 317.004 183.561 317.557 183.561 318.25V324H182.22V322.818H182.152C182.061 323.008 181.91 323.21 181.697 323.426C181.485 323.642 181.203 323.826 180.851 323.977C180.499 324.129 180.069 324.205 179.561 324.205ZM179.766 323C180.296 323 180.743 322.896 181.107 322.688C181.474 322.479 181.75 322.21 181.936 321.881C182.125 321.551 182.22 321.205 182.22 320.841V319.614C182.163 319.682 182.038 319.744 181.845 319.801C181.656 319.854 181.436 319.902 181.186 319.943C180.94 319.981 180.699 320.015 180.464 320.045C180.233 320.072 180.046 320.095 179.902 320.114C179.554 320.159 179.228 320.233 178.925 320.335C178.625 320.434 178.383 320.583 178.197 320.784C178.016 320.981 177.925 321.25 177.925 321.591C177.925 322.057 178.097 322.409 178.442 322.648C178.79 322.883 179.232 323 179.766 323ZM186.009 324V315.273H187.304V316.591H187.395C187.554 316.159 187.842 315.809 188.259 315.54C188.675 315.271 189.145 315.136 189.668 315.136C189.766 315.136 189.889 315.138 190.037 315.142C190.185 315.146 190.296 315.152 190.372 315.159V316.523C190.327 316.511 190.223 316.494 190.06 316.472C189.901 316.445 189.732 316.432 189.554 316.432C189.13 316.432 188.751 316.521 188.418 316.699C188.088 316.873 187.827 317.116 187.634 317.426C187.444 317.733 187.349 318.083 187.349 318.477V324H186.009ZM194.53 324.205C193.977 324.205 193.475 324.1 193.024 323.892C192.573 323.68 192.215 323.375 191.95 322.977C191.685 322.576 191.553 322.091 191.553 321.523C191.553 321.023 191.651 320.617 191.848 320.307C192.045 319.992 192.308 319.746 192.638 319.568C192.967 319.39 193.331 319.258 193.729 319.17C194.13 319.08 194.534 319.008 194.939 318.955C195.469 318.886 195.899 318.835 196.229 318.801C196.562 318.763 196.804 318.701 196.956 318.614C197.111 318.527 197.189 318.375 197.189 318.159V318.114C197.189 317.553 197.036 317.117 196.729 316.807C196.426 316.496 195.965 316.341 195.348 316.341C194.708 316.341 194.206 316.481 193.842 316.761C193.479 317.042 193.223 317.341 193.075 317.659L191.803 317.205C192.03 316.674 192.333 316.261 192.712 315.966C193.094 315.667 193.511 315.458 193.962 315.341C194.416 315.22 194.863 315.159 195.303 315.159C195.583 315.159 195.905 315.193 196.268 315.261C196.636 315.326 196.99 315.46 197.331 315.665C197.676 315.869 197.962 316.178 198.189 316.591C198.416 317.004 198.53 317.557 198.53 318.25V324H197.189V322.818H197.121C197.03 323.008 196.878 323.21 196.666 323.426C196.454 323.642 196.172 323.826 195.82 323.977C195.467 324.129 195.037 324.205 194.53 324.205ZM194.734 323C195.265 323 195.712 322.896 196.075 322.688C196.443 322.479 196.719 322.21 196.905 321.881C197.094 321.551 197.189 321.205 197.189 320.841V319.614C197.132 319.682 197.007 319.744 196.814 319.801C196.625 319.854 196.405 319.902 196.155 319.943C195.909 319.981 195.668 320.015 195.433 320.045C195.202 320.072 195.015 320.095 194.871 320.114C194.522 320.159 194.196 320.233 193.893 320.335C193.594 320.434 193.352 320.583 193.166 320.784C192.984 320.981 192.893 321.25 192.893 321.591C192.893 322.057 193.066 322.409 193.411 322.648C193.759 322.883 194.2 323 194.734 323ZM212.614 315.273L209.386 324H208.023L204.795 315.273H206.25L208.659 322.227H208.75L211.159 315.273H212.614ZM217.616 324.182C216.829 324.182 216.137 323.994 215.543 323.619C214.952 323.244 214.49 322.72 214.156 322.045C213.827 321.371 213.662 320.583 213.662 319.682C213.662 318.773 213.827 317.979 214.156 317.301C214.49 316.623 214.952 316.097 215.543 315.722C216.137 315.347 216.829 315.159 217.616 315.159C218.404 315.159 219.094 315.347 219.685 315.722C220.279 316.097 220.741 316.623 221.071 317.301C221.404 317.979 221.571 318.773 221.571 319.682C221.571 320.583 221.404 321.371 221.071 322.045C220.741 322.72 220.279 323.244 219.685 323.619C219.094 323.994 218.404 324.182 217.616 324.182ZM217.616 322.977C218.215 322.977 218.707 322.824 219.094 322.517C219.48 322.21 219.766 321.807 219.952 321.307C220.137 320.807 220.23 320.265 220.23 319.682C220.23 319.098 220.137 318.555 219.952 318.051C219.766 317.547 219.48 317.14 219.094 316.83C218.707 316.519 218.215 316.364 217.616 316.364C217.018 316.364 216.526 316.519 216.139 316.83C215.753 317.14 215.467 317.547 215.281 318.051C215.096 318.555 215.003 319.098 215.003 319.682C215.003 320.265 215.096 320.807 215.281 321.307C215.467 321.807 215.753 322.21 216.139 322.517C216.526 322.824 217.018 322.977 217.616 322.977ZM227.163 324.182C226.345 324.182 225.641 323.989 225.05 323.602C224.459 323.216 224.004 322.684 223.686 322.006C223.368 321.328 223.209 320.553 223.209 319.682C223.209 318.795 223.372 318.013 223.697 317.335C224.027 316.653 224.485 316.121 225.072 315.739C225.663 315.352 226.353 315.159 227.141 315.159C227.754 315.159 228.307 315.273 228.8 315.5C229.292 315.727 229.696 316.045 230.01 316.455C230.324 316.864 230.519 317.341 230.595 317.886H229.254C229.152 317.489 228.925 317.136 228.572 316.83C228.224 316.519 227.754 316.364 227.163 316.364C226.641 316.364 226.182 316.5 225.788 316.773C225.398 317.042 225.093 317.422 224.874 317.915C224.658 318.403 224.55 318.977 224.55 319.636C224.55 320.311 224.656 320.898 224.868 321.398C225.084 321.898 225.387 322.286 225.777 322.562C226.171 322.839 226.633 322.977 227.163 322.977C227.512 322.977 227.828 322.917 228.112 322.795C228.396 322.674 228.637 322.5 228.834 322.273C229.031 322.045 229.171 321.773 229.254 321.455H230.595C230.519 321.97 230.332 322.434 230.033 322.847C229.737 323.256 229.345 323.581 228.857 323.824C228.372 324.062 227.807 324.182 227.163 324.182ZM236.214 324.182C235.374 324.182 234.648 323.996 234.038 323.625C233.432 323.25 232.964 322.727 232.635 322.057C232.309 321.383 232.146 320.598 232.146 319.705C232.146 318.811 232.309 318.023 232.635 317.341C232.964 316.655 233.423 316.121 234.01 315.739C234.601 315.352 235.29 315.159 236.078 315.159C236.533 315.159 236.982 315.235 237.425 315.386C237.868 315.538 238.271 315.784 238.635 316.125C238.999 316.462 239.288 316.909 239.504 317.466C239.72 318.023 239.828 318.708 239.828 319.523V320.091H233.101V318.932H238.464C238.464 318.439 238.366 318 238.169 317.614C237.976 317.227 237.699 316.922 237.339 316.699C236.983 316.475 236.563 316.364 236.078 316.364C235.544 316.364 235.082 316.496 234.692 316.761C234.305 317.023 234.008 317.364 233.8 317.784C233.591 318.205 233.487 318.655 233.487 319.136V319.909C233.487 320.568 233.601 321.127 233.828 321.585C234.059 322.04 234.379 322.386 234.788 322.625C235.197 322.86 235.673 322.977 236.214 322.977C236.567 322.977 236.885 322.928 237.169 322.83C237.457 322.727 237.705 322.576 237.913 322.375C238.122 322.17 238.283 321.917 238.396 321.614L239.692 321.977C239.555 322.417 239.326 322.803 239.004 323.136C238.682 323.466 238.285 323.723 237.811 323.909C237.338 324.091 236.805 324.182 236.214 324.182ZM237.192 314.227L236.01 312.636L234.828 314.227H233.555V314.136L235.396 311.773H236.624L238.464 314.136V314.227H237.192ZM250.027 324.182C249.186 324.182 248.461 323.996 247.851 323.625C247.245 323.25 246.777 322.727 246.447 322.057C246.122 321.383 245.959 320.598 245.959 319.705C245.959 318.811 246.122 318.023 246.447 317.341C246.777 316.655 247.235 316.121 247.822 315.739C248.413 315.352 249.103 315.159 249.891 315.159C250.345 315.159 250.794 315.235 251.237 315.386C251.68 315.538 252.084 315.784 252.447 316.125C252.811 316.462 253.101 316.909 253.317 317.466C253.533 318.023 253.641 318.708 253.641 319.523V320.091H246.913V318.932H252.277C252.277 318.439 252.179 318 251.982 317.614C251.788 317.227 251.512 316.922 251.152 316.699C250.796 316.475 250.375 316.364 249.891 316.364C249.357 316.364 248.894 316.496 248.504 316.761C248.118 317.023 247.821 317.364 247.612 317.784C247.404 318.205 247.3 318.655 247.3 319.136V319.909C247.3 320.568 247.413 321.127 247.641 321.585C247.872 322.04 248.192 322.386 248.601 322.625C249.01 322.86 249.485 322.977 250.027 322.977C250.379 322.977 250.697 322.928 250.982 322.83C251.269 322.727 251.518 322.576 251.726 322.375C251.934 322.17 252.095 321.917 252.209 321.614L253.504 321.977C253.368 322.417 253.139 322.803 252.817 323.136C252.495 323.466 252.097 323.723 251.624 323.909C251.15 324.091 250.618 324.182 250.027 324.182ZM256.446 315.273L258.537 318.841L260.628 315.273H262.173L259.355 319.636L262.173 324H260.628L258.537 320.614L256.446 324H254.901L257.673 319.636L254.901 315.273H256.446ZM264.087 327.273V315.273H265.382V316.659H265.541C265.64 316.508 265.776 316.314 265.95 316.08C266.128 315.841 266.382 315.629 266.712 315.443C267.045 315.254 267.496 315.159 268.064 315.159C268.799 315.159 269.446 315.343 270.007 315.71C270.568 316.078 271.005 316.598 271.32 317.273C271.634 317.947 271.791 318.742 271.791 319.659C271.791 320.583 271.634 321.384 271.32 322.062C271.005 322.737 270.57 323.259 270.013 323.631C269.456 323.998 268.814 324.182 268.087 324.182C267.526 324.182 267.077 324.089 266.74 323.903C266.403 323.714 266.143 323.5 265.962 323.261C265.78 323.019 265.64 322.818 265.541 322.659H265.428V327.273H264.087ZM265.405 319.636C265.405 320.295 265.501 320.877 265.695 321.381C265.888 321.881 266.17 322.273 266.541 322.557C266.912 322.837 267.367 322.977 267.905 322.977C268.465 322.977 268.933 322.83 269.308 322.534C269.687 322.235 269.971 321.833 270.161 321.33C270.354 320.822 270.45 320.258 270.45 319.636C270.45 319.023 270.356 318.47 270.166 317.977C269.981 317.481 269.698 317.089 269.32 316.801C268.945 316.509 268.473 316.364 267.905 316.364C267.359 316.364 266.901 316.502 266.53 316.778C266.159 317.051 265.878 317.434 265.689 317.926C265.5 318.415 265.405 318.985 265.405 319.636ZM275.178 312.364V324H273.837V312.364H275.178ZM281.179 324.182C280.391 324.182 279.7 323.994 279.105 323.619C278.514 323.244 278.052 322.72 277.719 322.045C277.389 321.371 277.224 320.583 277.224 319.682C277.224 318.773 277.389 317.979 277.719 317.301C278.052 316.623 278.514 316.097 279.105 315.722C279.7 315.347 280.391 315.159 281.179 315.159C281.967 315.159 282.656 315.347 283.247 315.722C283.842 316.097 284.304 316.623 284.634 317.301C284.967 317.979 285.134 318.773 285.134 319.682C285.134 320.583 284.967 321.371 284.634 322.045C284.304 322.72 283.842 323.244 283.247 323.619C282.656 323.994 281.967 324.182 281.179 324.182ZM281.179 322.977C281.777 322.977 282.27 322.824 282.656 322.517C283.043 322.21 283.329 321.807 283.514 321.307C283.7 320.807 283.793 320.265 283.793 319.682C283.793 319.098 283.7 318.555 283.514 318.051C283.329 317.547 283.043 317.14 282.656 316.83C282.27 316.519 281.777 316.364 281.179 316.364C280.58 316.364 280.088 316.519 279.702 316.83C279.315 317.14 279.029 317.547 278.844 318.051C278.658 318.555 278.565 319.098 278.565 319.682C278.565 320.265 278.658 320.807 278.844 321.307C279.029 321.807 279.315 322.21 279.702 322.517C280.088 322.824 280.58 322.977 281.179 322.977ZM287.18 324V315.273H288.476V316.591H288.567C288.726 316.159 289.014 315.809 289.43 315.54C289.847 315.271 290.317 315.136 290.839 315.136C290.938 315.136 291.061 315.138 291.209 315.142C291.357 315.146 291.468 315.152 291.544 315.159V316.523C291.499 316.511 291.394 316.494 291.232 316.472C291.072 316.445 290.904 316.432 290.726 316.432C290.302 316.432 289.923 316.521 289.589 316.699C289.26 316.873 288.999 317.116 288.805 317.426C288.616 317.733 288.521 318.083 288.521 318.477V324H287.18ZM295.702 324.205C295.149 324.205 294.647 324.1 294.196 323.892C293.745 323.68 293.387 323.375 293.122 322.977C292.857 322.576 292.724 322.091 292.724 321.523C292.724 321.023 292.823 320.617 293.02 320.307C293.217 319.992 293.48 319.746 293.81 319.568C294.139 319.39 294.503 319.258 294.901 319.17C295.302 319.08 295.705 319.008 296.111 318.955C296.641 318.886 297.071 318.835 297.401 318.801C297.734 318.763 297.976 318.701 298.128 318.614C298.283 318.527 298.361 318.375 298.361 318.159V318.114C298.361 317.553 298.207 317.117 297.901 316.807C297.598 316.496 297.137 316.341 296.52 316.341C295.88 316.341 295.378 316.481 295.014 316.761C294.651 317.042 294.395 317.341 294.247 317.659L292.974 317.205C293.202 316.674 293.505 316.261 293.884 315.966C294.266 315.667 294.683 315.458 295.134 315.341C295.588 315.22 296.035 315.159 296.474 315.159C296.755 315.159 297.077 315.193 297.44 315.261C297.808 315.326 298.162 315.46 298.503 315.665C298.848 315.869 299.134 316.178 299.361 316.591C299.588 317.004 299.702 317.557 299.702 318.25V324H298.361V322.818H298.293C298.202 323.008 298.05 323.21 297.838 323.426C297.626 323.642 297.344 323.826 296.991 323.977C296.639 324.129 296.209 324.205 295.702 324.205ZM295.906 323C296.437 323 296.884 322.896 297.247 322.688C297.615 322.479 297.891 322.21 298.077 321.881C298.266 321.551 298.361 321.205 298.361 320.841V319.614C298.304 319.682 298.179 319.744 297.986 319.801C297.796 319.854 297.577 319.902 297.327 319.943C297.08 319.981 296.84 320.015 296.605 320.045C296.374 320.072 296.187 320.095 296.043 320.114C295.694 320.159 295.368 320.233 295.065 320.335C294.766 320.434 294.524 320.583 294.338 320.784C294.156 320.981 294.065 321.25 294.065 321.591C294.065 322.057 294.238 322.409 294.582 322.648C294.931 322.883 295.372 323 295.906 323ZM302.149 324V315.273H303.445V316.591H303.536C303.695 316.159 303.982 315.809 304.399 315.54C304.816 315.271 305.286 315.136 305.808 315.136C305.907 315.136 306.03 315.138 306.178 315.142C306.325 315.146 306.437 315.152 306.513 315.159V316.523C306.467 316.511 306.363 316.494 306.2 316.472C306.041 316.445 305.873 316.432 305.695 316.432C305.27 316.432 304.892 316.521 304.558 316.699C304.229 316.873 303.967 317.116 303.774 317.426C303.585 317.733 303.49 318.083 303.49 318.477V324H302.149ZM316.148 324.182C315.36 324.182 314.669 323.994 314.074 323.619C313.483 323.244 313.021 322.72 312.688 322.045C312.358 321.371 312.193 320.583 312.193 319.682C312.193 318.773 312.358 317.979 312.688 317.301C313.021 316.623 313.483 316.097 314.074 315.722C314.669 315.347 315.36 315.159 316.148 315.159C316.936 315.159 317.625 315.347 318.216 315.722C318.811 316.097 319.273 316.623 319.602 317.301C319.936 317.979 320.102 318.773 320.102 319.682C320.102 320.583 319.936 321.371 319.602 322.045C319.273 322.72 318.811 323.244 318.216 323.619C317.625 323.994 316.936 324.182 316.148 324.182ZM316.148 322.977C316.746 322.977 317.239 322.824 317.625 322.517C318.011 322.21 318.297 321.807 318.483 321.307C318.669 320.807 318.761 320.265 318.761 319.682C318.761 319.098 318.669 318.555 318.483 318.051C318.297 317.547 318.011 317.14 317.625 316.83C317.239 316.519 316.746 316.364 316.148 316.364C315.549 316.364 315.057 316.519 314.67 316.83C314.284 317.14 313.998 317.547 313.812 318.051C313.627 318.555 313.534 319.098 313.534 319.682C313.534 320.265 313.627 320.807 313.812 321.307C313.998 321.807 314.284 322.21 314.67 322.517C315.057 322.824 315.549 322.977 316.148 322.977ZM332.831 317.227L331.626 317.568C331.551 317.367 331.439 317.172 331.291 316.983C331.147 316.79 330.95 316.631 330.7 316.506C330.45 316.381 330.13 316.318 329.74 316.318C329.206 316.318 328.761 316.441 328.405 316.688C328.053 316.93 327.876 317.239 327.876 317.614C327.876 317.947 327.998 318.21 328.24 318.403C328.482 318.597 328.861 318.758 329.376 318.886L330.672 319.205C331.452 319.394 332.034 319.684 332.416 320.074C332.799 320.46 332.99 320.958 332.99 321.568C332.99 322.068 332.846 322.515 332.558 322.909C332.274 323.303 331.876 323.614 331.365 323.841C330.854 324.068 330.259 324.182 329.581 324.182C328.691 324.182 327.954 323.989 327.371 323.602C326.787 323.216 326.418 322.652 326.263 321.909L327.536 321.591C327.657 322.061 327.886 322.413 328.223 322.648C328.564 322.883 329.009 323 329.558 323C330.183 323 330.679 322.867 331.047 322.602C331.418 322.333 331.604 322.011 331.604 321.636C331.604 321.333 331.498 321.08 331.286 320.875C331.073 320.667 330.748 320.511 330.308 320.409L328.854 320.068C328.054 319.879 327.467 319.585 327.092 319.188C326.721 318.786 326.536 318.284 326.536 317.682C326.536 317.189 326.674 316.754 326.95 316.375C327.231 315.996 327.611 315.699 328.092 315.483C328.577 315.267 329.126 315.159 329.74 315.159C330.604 315.159 331.282 315.348 331.774 315.727C332.27 316.106 332.623 316.606 332.831 317.227ZM338.668 324.182C337.827 324.182 337.101 323.996 336.491 323.625C335.885 323.25 335.418 322.727 335.088 322.057C334.762 321.383 334.599 320.598 334.599 319.705C334.599 318.811 334.762 318.023 335.088 317.341C335.418 316.655 335.876 316.121 336.463 315.739C337.054 315.352 337.743 315.159 338.531 315.159C338.986 315.159 339.435 315.235 339.878 315.386C340.321 315.538 340.724 315.784 341.088 316.125C341.452 316.462 341.741 316.909 341.957 317.466C342.173 318.023 342.281 318.708 342.281 319.523V320.091H335.554V318.932H340.918C340.918 318.439 340.819 318 340.622 317.614C340.429 317.227 340.152 316.922 339.793 316.699C339.437 316.475 339.016 316.364 338.531 316.364C337.997 316.364 337.535 316.496 337.145 316.761C336.759 317.023 336.461 317.364 336.253 317.784C336.045 318.205 335.94 318.655 335.94 319.136V319.909C335.94 320.568 336.054 321.127 336.281 321.585C336.512 322.04 336.832 322.386 337.241 322.625C337.651 322.86 338.126 322.977 338.668 322.977C339.02 322.977 339.338 322.928 339.622 322.83C339.91 322.727 340.158 322.576 340.366 322.375C340.575 322.17 340.736 321.917 340.849 321.614L342.145 321.977C342.009 322.417 341.779 322.803 341.457 323.136C341.135 323.466 340.738 323.723 340.264 323.909C339.791 324.091 339.259 324.182 338.668 324.182ZM349.821 320.432V315.273H351.162V324H349.821V322.523H349.73C349.526 322.966 349.207 323.343 348.776 323.653C348.344 323.96 347.798 324.114 347.139 324.114C346.594 324.114 346.109 323.994 345.685 323.756C345.26 323.513 344.927 323.15 344.685 322.665C344.442 322.176 344.321 321.561 344.321 320.818V315.273H345.662V320.727C345.662 321.364 345.84 321.871 346.196 322.25C346.556 322.629 347.014 322.818 347.571 322.818C347.904 322.818 348.243 322.733 348.588 322.562C348.937 322.392 349.228 322.131 349.463 321.778C349.702 321.426 349.821 320.977 349.821 320.432ZM162.743 352V343.273H164.038V344.636H164.152C164.334 344.17 164.627 343.809 165.033 343.551C165.438 343.29 165.925 343.159 166.493 343.159C167.069 343.159 167.548 343.29 167.93 343.551C168.317 343.809 168.618 344.17 168.834 344.636H168.925C169.148 344.186 169.483 343.828 169.93 343.562C170.377 343.294 170.913 343.159 171.538 343.159C172.319 343.159 172.957 343.403 173.453 343.892C173.949 344.377 174.197 345.133 174.197 346.159V352H172.857V346.159C172.857 345.515 172.68 345.055 172.328 344.778C171.976 344.502 171.561 344.364 171.084 344.364C170.47 344.364 169.995 344.549 169.658 344.92C169.321 345.288 169.152 345.754 169.152 346.318V352H167.788V346.023C167.788 345.527 167.627 345.127 167.305 344.824C166.983 344.517 166.569 344.364 166.061 344.364C165.713 344.364 165.387 344.456 165.084 344.642C164.785 344.828 164.542 345.085 164.357 345.415C164.175 345.741 164.084 346.117 164.084 346.545V352H162.743ZM180.308 352.182C179.467 352.182 178.742 351.996 178.132 351.625C177.526 351.25 177.058 350.727 176.729 350.057C176.403 349.383 176.24 348.598 176.24 347.705C176.24 346.811 176.403 346.023 176.729 345.341C177.058 344.655 177.517 344.121 178.104 343.739C178.695 343.352 179.384 343.159 180.172 343.159C180.626 343.159 181.075 343.235 181.518 343.386C181.962 343.538 182.365 343.784 182.729 344.125C183.092 344.462 183.382 344.909 183.598 345.466C183.814 346.023 183.922 346.708 183.922 347.523V348.091H177.195V346.932H182.558C182.558 346.439 182.46 346 182.263 345.614C182.07 345.227 181.793 344.922 181.433 344.699C181.077 344.475 180.657 344.364 180.172 344.364C179.638 344.364 179.176 344.496 178.786 344.761C178.399 345.023 178.102 345.364 177.893 345.784C177.685 346.205 177.581 346.655 177.581 347.136V347.909C177.581 348.568 177.695 349.127 177.922 349.585C178.153 350.04 178.473 350.386 178.882 350.625C179.291 350.86 179.767 350.977 180.308 350.977C180.661 350.977 180.979 350.928 181.263 350.83C181.551 350.727 181.799 350.576 182.007 350.375C182.215 350.17 182.376 349.917 182.49 349.614L183.786 349.977C183.649 350.417 183.42 350.803 183.098 351.136C182.776 351.466 182.378 351.723 181.905 351.909C181.431 352.091 180.899 352.182 180.308 352.182ZM187.303 340.364V352H185.962V340.364H187.303ZM191.099 346.75V352H189.759V340.364H191.099V344.636H191.213C191.418 344.186 191.724 343.828 192.134 343.562C192.546 343.294 193.096 343.159 193.781 343.159C194.376 343.159 194.897 343.278 195.344 343.517C195.791 343.752 196.137 344.114 196.384 344.602C196.634 345.087 196.759 345.705 196.759 346.455V352H195.418V346.545C195.418 345.852 195.238 345.316 194.878 344.938C194.522 344.555 194.027 344.364 193.395 344.364C192.955 344.364 192.562 344.456 192.213 344.642C191.868 344.828 191.596 345.098 191.395 345.455C191.198 345.811 191.099 346.242 191.099 346.75ZM202.757 352.182C201.969 352.182 201.278 351.994 200.683 351.619C200.092 351.244 199.63 350.72 199.297 350.045C198.967 349.371 198.803 348.583 198.803 347.682C198.803 346.773 198.967 345.979 199.297 345.301C199.63 344.623 200.092 344.097 200.683 343.722C201.278 343.347 201.969 343.159 202.757 343.159C203.545 343.159 204.234 343.347 204.825 343.722C205.42 344.097 205.882 344.623 206.212 345.301C206.545 345.979 206.712 346.773 206.712 347.682C206.712 348.583 206.545 349.371 206.212 350.045C205.882 350.72 205.42 351.244 204.825 351.619C204.234 351.994 203.545 352.182 202.757 352.182ZM202.757 350.977C203.356 350.977 203.848 350.824 204.234 350.517C204.621 350.21 204.907 349.807 205.092 349.307C205.278 348.807 205.371 348.265 205.371 347.682C205.371 347.098 205.278 346.555 205.092 346.051C204.907 345.547 204.621 345.14 204.234 344.83C203.848 344.519 203.356 344.364 202.757 344.364C202.159 344.364 201.666 344.519 201.28 344.83C200.893 345.14 200.607 345.547 200.422 346.051C200.236 346.555 200.143 347.098 200.143 347.682C200.143 348.265 200.236 348.807 200.422 349.307C200.607 349.807 200.893 350.21 201.28 350.517C201.666 350.824 202.159 350.977 202.757 350.977ZM208.759 352V343.273H210.054V344.591H210.145C210.304 344.159 210.592 343.809 211.009 343.54C211.425 343.271 211.895 343.136 212.418 343.136C212.516 343.136 212.639 343.138 212.787 343.142C212.935 343.146 213.046 343.152 213.122 343.159V344.523C213.077 344.511 212.973 344.494 212.81 344.472C212.651 344.445 212.482 344.432 212.304 344.432C211.88 344.432 211.501 344.521 211.168 344.699C210.838 344.873 210.577 345.116 210.384 345.426C210.194 345.733 210.099 346.083 210.099 346.477V352H208.759Z" fill="#F8F9FA"/>
<path d="M165.648 442V430.364H167.756V440.233H172.881V442H165.648ZM178.483 442.17C177.608 442.17 176.852 441.989 176.216 441.625C175.583 441.258 175.097 440.739 174.756 440.068C174.415 439.394 174.244 438.6 174.244 437.688C174.244 436.79 174.415 436.002 174.756 435.324C175.1 434.642 175.581 434.112 176.199 433.733C176.816 433.35 177.542 433.159 178.375 433.159C178.913 433.159 179.42 433.246 179.898 433.42C180.379 433.591 180.803 433.856 181.17 434.216C181.542 434.576 181.833 435.034 182.045 435.591C182.258 436.144 182.364 436.803 182.364 437.568V438.199H175.21V436.812H180.392C180.388 436.419 180.303 436.068 180.136 435.761C179.97 435.451 179.737 435.206 179.438 435.028C179.142 434.85 178.797 434.761 178.403 434.761C177.983 434.761 177.614 434.864 177.295 435.068C176.977 435.269 176.729 435.534 176.551 435.864C176.377 436.189 176.288 436.547 176.284 436.938V438.148C176.284 438.655 176.377 439.091 176.562 439.455C176.748 439.814 177.008 440.091 177.341 440.284C177.674 440.473 178.064 440.568 178.511 440.568C178.811 440.568 179.081 440.527 179.324 440.443C179.566 440.356 179.777 440.229 179.955 440.062C180.133 439.896 180.267 439.689 180.358 439.443L182.278 439.659C182.157 440.167 181.926 440.61 181.585 440.989C181.248 441.364 180.816 441.655 180.29 441.864C179.763 442.068 179.161 442.17 178.483 442.17ZM184.104 442V433.273H186.161V442H184.104ZM185.138 432.034C184.812 432.034 184.532 431.926 184.297 431.71C184.062 431.491 183.945 431.227 183.945 430.92C183.945 430.61 184.062 430.347 184.297 430.131C184.532 429.911 184.812 429.801 185.138 429.801C185.467 429.801 185.748 429.911 185.979 430.131C186.214 430.347 186.331 430.61 186.331 430.92C186.331 431.227 186.214 431.491 185.979 431.71C185.748 431.926 185.467 432.034 185.138 432.034ZM190.332 430.364V442H188.276V430.364H190.332ZM194.959 442.176C194.406 442.176 193.908 442.078 193.464 441.881C193.025 441.68 192.677 441.384 192.419 440.994C192.165 440.604 192.038 440.123 192.038 439.551C192.038 439.059 192.129 438.652 192.311 438.33C192.493 438.008 192.741 437.75 193.055 437.557C193.37 437.364 193.724 437.218 194.118 437.119C194.516 437.017 194.927 436.943 195.351 436.898C195.862 436.845 196.277 436.797 196.595 436.756C196.913 436.71 197.144 436.642 197.288 436.551C197.436 436.456 197.51 436.311 197.51 436.114V436.08C197.51 435.652 197.383 435.32 197.129 435.085C196.875 434.85 196.51 434.733 196.033 434.733C195.529 434.733 195.129 434.843 194.834 435.062C194.542 435.282 194.345 435.542 194.243 435.841L192.322 435.568C192.474 435.038 192.724 434.595 193.072 434.239C193.421 433.879 193.847 433.61 194.351 433.432C194.855 433.25 195.411 433.159 196.021 433.159C196.442 433.159 196.86 433.208 197.277 433.307C197.694 433.405 198.074 433.568 198.419 433.795C198.764 434.019 199.04 434.324 199.249 434.71C199.461 435.097 199.567 435.58 199.567 436.159V442H197.589V440.801H197.521C197.396 441.044 197.22 441.271 196.993 441.483C196.769 441.691 196.487 441.86 196.146 441.989C195.809 442.114 195.413 442.176 194.959 442.176ZM195.493 440.665C195.906 440.665 196.264 440.583 196.567 440.42C196.87 440.254 197.103 440.034 197.266 439.761C197.432 439.489 197.516 439.191 197.516 438.869V437.841C197.451 437.894 197.341 437.943 197.186 437.989C197.035 438.034 196.864 438.074 196.675 438.108C196.485 438.142 196.298 438.172 196.112 438.199C195.927 438.225 195.766 438.248 195.629 438.267C195.322 438.309 195.048 438.377 194.805 438.472C194.563 438.566 194.372 438.699 194.232 438.869C194.091 439.036 194.021 439.252 194.021 439.517C194.021 439.896 194.16 440.182 194.436 440.375C194.713 440.568 195.065 440.665 195.493 440.665ZM194.442 432.21L193.197 432.182C193.197 431.508 193.372 430.979 193.72 430.597C194.069 430.214 194.499 430.023 195.01 430.023C195.256 430.023 195.47 430.064 195.652 430.148C195.834 430.227 196 430.32 196.152 430.426C196.307 430.532 196.459 430.627 196.607 430.71C196.754 430.79 196.917 430.83 197.095 430.83C197.311 430.83 197.482 430.748 197.607 430.585C197.735 430.422 197.802 430.214 197.805 429.96L199.027 430.011C199.023 430.689 198.847 431.216 198.499 431.591C198.15 431.962 197.722 432.15 197.214 432.153C196.942 432.157 196.713 432.117 196.527 432.034C196.341 431.951 196.179 431.856 196.038 431.75C195.902 431.644 195.764 431.551 195.624 431.472C195.483 431.388 195.319 431.347 195.129 431.347C194.929 431.347 194.764 431.426 194.635 431.585C194.506 431.744 194.442 431.953 194.442 432.21ZM205.442 442.17C204.589 442.17 203.851 441.983 203.226 441.608C202.601 441.233 202.116 440.708 201.771 440.034C201.43 439.36 201.26 438.572 201.26 437.67C201.26 436.769 201.43 435.979 201.771 435.301C202.116 434.623 202.601 434.097 203.226 433.722C203.851 433.347 204.589 433.159 205.442 433.159C206.294 433.159 207.033 433.347 207.658 433.722C208.283 434.097 208.766 434.623 209.107 435.301C209.451 435.979 209.624 436.769 209.624 437.67C209.624 438.572 209.451 439.36 209.107 440.034C208.766 440.708 208.283 441.233 207.658 441.608C207.033 441.983 206.294 442.17 205.442 442.17ZM205.453 440.523C205.915 440.523 206.302 440.396 206.612 440.142C206.923 439.884 207.154 439.54 207.305 439.108C207.461 438.676 207.538 438.195 207.538 437.665C207.538 437.131 207.461 436.648 207.305 436.216C207.154 435.78 206.923 435.434 206.612 435.176C206.302 434.919 205.915 434.79 205.453 434.79C204.98 434.79 204.586 434.919 204.271 435.176C203.961 435.434 203.728 435.78 203.572 436.216C203.421 436.648 203.345 437.131 203.345 437.665C203.345 438.195 203.421 438.676 203.572 439.108C203.728 439.54 203.961 439.884 204.271 440.142C204.586 440.396 204.98 440.523 205.453 440.523Z" fill="#FDFDFD"/>
<rect x="12.75" y="412.75" width="349.5" height="46.5" rx="3.25" stroke="#FDFDFD" stroke-width="1.5"/>
<path d="M172.608 503.29H170.483C170.422 502.941 170.311 502.633 170.148 502.364C169.985 502.091 169.782 501.86 169.54 501.67C169.297 501.481 169.021 501.339 168.71 501.244C168.403 501.146 168.072 501.097 167.716 501.097C167.083 501.097 166.523 501.256 166.034 501.574C165.545 501.888 165.163 502.35 164.886 502.96C164.61 503.566 164.472 504.307 164.472 505.182C164.472 506.072 164.61 506.822 164.886 507.432C165.167 508.038 165.549 508.496 166.034 508.807C166.523 509.114 167.081 509.267 167.71 509.267C168.059 509.267 168.384 509.222 168.688 509.131C168.994 509.036 169.269 508.898 169.511 508.716C169.758 508.534 169.964 508.311 170.131 508.045C170.301 507.78 170.419 507.477 170.483 507.136L172.608 507.148C172.528 507.701 172.356 508.22 172.091 508.705C171.83 509.189 171.487 509.617 171.062 509.989C170.638 510.356 170.142 510.644 169.574 510.852C169.006 511.057 168.375 511.159 167.682 511.159C166.659 511.159 165.746 510.922 164.943 510.449C164.14 509.975 163.508 509.292 163.045 508.398C162.583 507.504 162.352 506.432 162.352 505.182C162.352 503.928 162.585 502.856 163.051 501.966C163.517 501.072 164.152 500.388 164.955 499.915C165.758 499.441 166.667 499.205 167.682 499.205C168.33 499.205 168.932 499.295 169.489 499.477C170.045 499.659 170.542 499.926 170.977 500.278C171.413 500.627 171.771 501.055 172.051 501.562C172.335 502.066 172.521 502.642 172.608 503.29ZM176.959 511.176C176.406 511.176 175.908 511.078 175.464 510.881C175.025 510.68 174.677 510.384 174.419 509.994C174.165 509.604 174.038 509.123 174.038 508.551C174.038 508.059 174.129 507.652 174.311 507.33C174.493 507.008 174.741 506.75 175.055 506.557C175.37 506.364 175.724 506.218 176.118 506.119C176.516 506.017 176.927 505.943 177.351 505.898C177.862 505.845 178.277 505.797 178.595 505.756C178.913 505.71 179.144 505.642 179.288 505.551C179.436 505.456 179.51 505.311 179.51 505.114V505.08C179.51 504.652 179.383 504.32 179.129 504.085C178.875 503.85 178.51 503.733 178.033 503.733C177.529 503.733 177.129 503.843 176.834 504.062C176.542 504.282 176.345 504.542 176.243 504.841L174.322 504.568C174.474 504.038 174.724 503.595 175.072 503.239C175.421 502.879 175.847 502.61 176.351 502.432C176.855 502.25 177.411 502.159 178.021 502.159C178.442 502.159 178.86 502.208 179.277 502.307C179.694 502.405 180.074 502.568 180.419 502.795C180.764 503.019 181.04 503.324 181.249 503.71C181.461 504.097 181.567 504.58 181.567 505.159V511H179.589V509.801H179.521C179.396 510.044 179.22 510.271 178.993 510.483C178.769 510.691 178.487 510.86 178.146 510.989C177.809 511.114 177.413 511.176 176.959 511.176ZM177.493 509.665C177.906 509.665 178.264 509.583 178.567 509.42C178.87 509.254 179.103 509.034 179.266 508.761C179.432 508.489 179.516 508.191 179.516 507.869V506.841C179.451 506.894 179.341 506.943 179.186 506.989C179.035 507.034 178.864 507.074 178.675 507.108C178.485 507.142 178.298 507.172 178.112 507.199C177.927 507.225 177.766 507.248 177.629 507.267C177.322 507.309 177.048 507.377 176.805 507.472C176.563 507.566 176.372 507.699 176.232 507.869C176.091 508.036 176.021 508.252 176.021 508.517C176.021 508.896 176.16 509.182 176.436 509.375C176.713 509.568 177.065 509.665 177.493 509.665ZM183.635 511V502.273H185.629V503.727H185.72C185.879 503.223 186.152 502.835 186.538 502.562C186.929 502.286 187.374 502.148 187.874 502.148C187.987 502.148 188.114 502.153 188.254 502.165C188.398 502.172 188.518 502.186 188.612 502.205V504.097C188.525 504.066 188.387 504.04 188.197 504.017C188.012 503.991 187.832 503.977 187.658 503.977C187.283 503.977 186.946 504.059 186.646 504.222C186.351 504.381 186.118 504.602 185.947 504.886C185.777 505.17 185.692 505.498 185.692 505.869V511H183.635ZM189.979 511V502.273H191.973V503.727H192.064C192.223 503.223 192.496 502.835 192.882 502.562C193.272 502.286 193.717 502.148 194.217 502.148C194.331 502.148 194.458 502.153 194.598 502.165C194.742 502.172 194.861 502.186 194.956 502.205V504.097C194.869 504.066 194.731 504.04 194.541 504.017C194.356 503.991 194.176 503.977 194.001 503.977C193.626 503.977 193.289 504.059 192.99 504.222C192.695 504.381 192.462 504.602 192.291 504.886C192.121 505.17 192.036 505.498 192.036 505.869V511H189.979ZM199.77 511.17C198.918 511.17 198.179 510.983 197.554 510.608C196.929 510.233 196.444 509.708 196.099 509.034C195.759 508.36 195.588 507.572 195.588 506.67C195.588 505.769 195.759 504.979 196.099 504.301C196.444 503.623 196.929 503.097 197.554 502.722C198.179 502.347 198.918 502.159 199.77 502.159C200.622 502.159 201.361 502.347 201.986 502.722C202.611 503.097 203.094 503.623 203.435 504.301C203.779 504.979 203.952 505.769 203.952 506.67C203.952 507.572 203.779 508.36 203.435 509.034C203.094 509.708 202.611 510.233 201.986 510.608C201.361 510.983 200.622 511.17 199.77 511.17ZM199.781 509.523C200.243 509.523 200.63 509.396 200.94 509.142C201.251 508.884 201.482 508.54 201.634 508.108C201.789 507.676 201.866 507.195 201.866 506.665C201.866 506.131 201.789 505.648 201.634 505.216C201.482 504.78 201.251 504.434 200.94 504.176C200.63 503.919 200.243 503.79 199.781 503.79C199.308 503.79 198.914 503.919 198.599 504.176C198.289 504.434 198.056 504.78 197.901 505.216C197.749 505.648 197.673 506.131 197.673 506.665C197.673 507.195 197.749 507.676 197.901 508.108C198.056 508.54 198.289 508.884 198.599 509.142C198.914 509.396 199.308 509.523 199.781 509.523ZM212.595 504.58L210.72 504.784C210.667 504.595 210.574 504.417 210.442 504.25C210.313 504.083 210.139 503.949 209.919 503.847C209.699 503.744 209.43 503.693 209.112 503.693C208.684 503.693 208.324 503.786 208.033 503.972C207.745 504.157 207.603 504.398 207.607 504.693C207.603 504.947 207.696 505.153 207.885 505.312C208.078 505.472 208.396 505.602 208.839 505.705L210.328 506.023C211.154 506.201 211.768 506.483 212.169 506.869C212.574 507.256 212.779 507.761 212.783 508.386C212.779 508.936 212.618 509.42 212.3 509.841C211.985 510.258 211.548 510.583 210.987 510.818C210.427 511.053 209.783 511.17 209.055 511.17C207.987 511.17 207.127 510.947 206.476 510.5C205.824 510.049 205.436 509.422 205.311 508.619L207.317 508.426C207.408 508.82 207.601 509.117 207.896 509.318C208.192 509.519 208.576 509.619 209.05 509.619C209.538 509.619 209.93 509.519 210.226 509.318C210.525 509.117 210.675 508.869 210.675 508.574C210.675 508.324 210.578 508.117 210.385 507.955C210.196 507.792 209.9 507.667 209.499 507.58L208.01 507.267C207.173 507.093 206.554 506.799 206.152 506.386C205.75 505.97 205.552 505.443 205.555 504.807C205.552 504.269 205.697 503.803 205.993 503.409C206.292 503.011 206.707 502.705 207.237 502.489C207.771 502.269 208.387 502.159 209.084 502.159C210.107 502.159 210.911 502.377 211.499 502.812C212.089 503.248 212.455 503.837 212.595 504.58Z" fill="#FDFDFD"/>
<rect x="12.75" y="481.75" width="349.5" height="46.5" rx="3.25" stroke="#FDFDFD" stroke-width="1.5"/>
<path d="M164.148 568.364H166.727L170.182 576.795H170.318L173.773 568.364H176.352V580H174.33V572.006H174.222L171.006 579.966H169.494L166.278 571.989H166.17V580H164.148V568.364ZM182.364 580.17C181.511 580.17 180.773 579.983 180.148 579.608C179.523 579.233 179.038 578.708 178.693 578.034C178.352 577.36 178.182 576.572 178.182 575.67C178.182 574.769 178.352 573.979 178.693 573.301C179.038 572.623 179.523 572.097 180.148 571.722C180.773 571.347 181.511 571.159 182.364 571.159C183.216 571.159 183.955 571.347 184.58 571.722C185.205 572.097 185.688 572.623 186.028 573.301C186.373 573.979 186.545 574.769 186.545 575.67C186.545 576.572 186.373 577.36 186.028 578.034C185.688 578.708 185.205 579.233 184.58 579.608C183.955 579.983 183.216 580.17 182.364 580.17ZM182.375 578.523C182.837 578.523 183.223 578.396 183.534 578.142C183.845 577.884 184.076 577.54 184.227 577.108C184.383 576.676 184.46 576.195 184.46 575.665C184.46 575.131 184.383 574.648 184.227 574.216C184.076 573.78 183.845 573.434 183.534 573.176C183.223 572.919 182.837 572.79 182.375 572.79C181.902 572.79 181.508 572.919 181.193 573.176C180.883 573.434 180.65 573.78 180.494 574.216C180.343 574.648 180.267 575.131 180.267 575.665C180.267 576.195 180.343 576.676 180.494 577.108C180.65 577.54 180.883 577.884 181.193 578.142C181.508 578.396 181.902 578.523 182.375 578.523ZM192.649 571.273V572.864H187.632V571.273H192.649ZM188.871 569.182H190.928V577.375C190.928 577.652 190.969 577.864 191.053 578.011C191.14 578.155 191.253 578.254 191.393 578.307C191.534 578.36 191.689 578.386 191.859 578.386C191.988 578.386 192.106 578.377 192.212 578.358C192.321 578.339 192.405 578.322 192.462 578.307L192.808 579.915C192.698 579.953 192.541 579.994 192.337 580.04C192.136 580.085 191.89 580.112 191.598 580.119C191.083 580.134 190.619 580.057 190.206 579.886C189.793 579.712 189.465 579.443 189.223 579.08C188.984 578.716 188.867 578.261 188.871 577.716V569.182ZM198.082 580.17C197.23 580.17 196.491 579.983 195.866 579.608C195.241 579.233 194.757 578.708 194.412 578.034C194.071 577.36 193.901 576.572 193.901 575.67C193.901 574.769 194.071 573.979 194.412 573.301C194.757 572.623 195.241 572.097 195.866 571.722C196.491 571.347 197.23 571.159 198.082 571.159C198.935 571.159 199.673 571.347 200.298 571.722C200.923 572.097 201.406 572.623 201.747 573.301C202.092 573.979 202.264 574.769 202.264 575.67C202.264 576.572 202.092 577.36 201.747 578.034C201.406 578.708 200.923 579.233 200.298 579.608C199.673 579.983 198.935 580.17 198.082 580.17ZM198.094 578.523C198.556 578.523 198.942 578.396 199.253 578.142C199.563 577.884 199.795 577.54 199.946 577.108C200.101 576.676 200.179 576.195 200.179 575.665C200.179 575.131 200.101 574.648 199.946 574.216C199.795 573.78 199.563 573.434 199.253 573.176C198.942 572.919 198.556 572.79 198.094 572.79C197.62 572.79 197.226 572.919 196.912 573.176C196.601 573.434 196.368 573.78 196.213 574.216C196.062 574.648 195.986 575.131 195.986 575.665C195.986 576.195 196.062 576.676 196.213 577.108C196.368 577.54 196.601 577.884 196.912 578.142C197.226 578.396 197.62 578.523 198.094 578.523ZM210.908 573.58L209.033 573.784C208.98 573.595 208.887 573.417 208.754 573.25C208.625 573.083 208.451 572.949 208.232 572.847C208.012 572.744 207.743 572.693 207.425 572.693C206.997 572.693 206.637 572.786 206.345 572.972C206.057 573.157 205.915 573.398 205.919 573.693C205.915 573.947 206.008 574.153 206.197 574.312C206.391 574.472 206.709 574.602 207.152 574.705L208.641 575.023C209.466 575.201 210.08 575.483 210.482 575.869C210.887 576.256 211.091 576.761 211.095 577.386C211.091 577.936 210.93 578.42 210.612 578.841C210.298 579.258 209.86 579.583 209.3 579.818C208.739 580.053 208.095 580.17 207.368 580.17C206.3 580.17 205.44 579.947 204.788 579.5C204.137 579.049 203.749 578.422 203.624 577.619L205.629 577.426C205.72 577.82 205.913 578.117 206.209 578.318C206.504 578.519 206.889 578.619 207.362 578.619C207.851 578.619 208.243 578.519 208.538 578.318C208.838 578.117 208.987 577.869 208.987 577.574C208.987 577.324 208.891 577.117 208.697 576.955C208.508 576.792 208.213 576.667 207.811 576.58L206.322 576.267C205.485 576.093 204.866 575.799 204.464 575.386C204.063 574.97 203.864 574.443 203.868 573.807C203.864 573.269 204.01 572.803 204.305 572.409C204.605 572.011 205.019 571.705 205.55 571.489C206.084 571.269 206.699 571.159 207.396 571.159C208.419 571.159 209.224 571.377 209.811 571.812C210.402 572.248 210.768 572.837 210.908 573.58Z" fill="#FDFDFD"/>
<rect x="12.75" y="550.75" width="349.5" height="46.5" rx="3.25" stroke="#FDFDFD" stroke-width="1.5"/>
</svg>

